<svg id="Слой_1" data-name="Слой 1" xmlns="http://www.w3.org/2000/svg" viewBox="0 0 400 200"><title>parallax1</title><g style="opacity:0.8999999761581421"><rect x="-25" y="-15" width="451" height="233" style="fill:#fff"/></g><rect x="0.5" width="399.5" height="200" style="fill:none;stroke:#fff;stroke-miterlimit:10"/><path d="M50,87.56l.86.58a3.81,3.81,0,0,0-.78,2.22v1.1H48.57v-.94A3.7,3.7,0,0,1,49,88.89,4,4,0,0,1,50,87.56Zm2.56,0,.86.58a3.81,3.81,0,0,0-.78,2.22v1.1H51.13v-.94a3.73,3.73,0,0,1,.39-1.64,3.88,3.88,0,0,1,1-1.32Z" style="fill:#af673f"/><path d="M56.65,100.18H55.09V88.36h1.56Z" style="fill:#af673f"/><path d="M65.41,89.27V91.4H67v1.16H65.41V98a1.23,1.23,0,0,0,.22.79.91.91,0,0,0,.75.26,3.38,3.38,0,0,0,.71-.1v1.21a4.43,4.43,0,0,1-1.15.16,1.87,1.87,0,0,1-1.52-.61A2.62,2.62,0,0,1,63.91,98V92.56h-1.6V91.39h1.6V89.27Z" style="fill:#af673f"/><path d="M70.3,92.46a3.18,3.18,0,0,1,2.6-1.23c1.85,0,2.79,1,2.81,3.14v5.8h-1.5V94.36a2,2,0,0,0-.43-1.4,1.75,1.75,0,0,0-1.33-.45,2.15,2.15,0,0,0-1.28.39,2.67,2.67,0,0,0-.86,1v6.26H68.8V87.71h1.5Z" style="fill:#af673f"/><path d="M78,89.07a.88.88,0,0,1,.22-.62.81.81,0,0,1,.66-.25.84.84,0,0,1,.67.25.9.9,0,1,1-1.55.62Zm1.62,11.11h-1.5V91.39h1.5Z" style="fill:#af673f"/><path d="M83.41,91.39v1.1A3.22,3.22,0,0,1,86,91.22c1.85,0,2.79,1,2.81,3.14v5.8H87.4v-5.8A2,2,0,0,0,87,93a1.75,1.75,0,0,0-1.33-.45,2.15,2.15,0,0,0-1.28.39,2.67,2.67,0,0,0-.86,1v6.26H82V91.39Z" style="fill:#af673f"/><path d="M93.61,96.11l-.94,1v3.08h-1.5V87.71h1.5v7.54l.8-1,2.73-2.89H98L94.58,95l3.81,5.11H96.67Z" style="fill:#af673f"/><path d="M105.61,100.18h-1.56V88.36h1.56Z" style="fill:#af673f"/><path d="M108.33,91.69l-.85-.58a4,4,0,0,0,.78-2.22V87.71h1.49v1.06a4,4,0,0,1-1.41,2.92Z" style="fill:#af673f"/><path d="M112.79,91.39v1a3.26,3.26,0,0,1,2.61-1.14,2.52,2.52,0,0,1,2.51,1.41,3.32,3.32,0,0,1,1.14-1,3.41,3.41,0,0,1,1.66-.39q2.9,0,2.94,3.06v5.88h-1.5V94.38a2,2,0,0,0-.43-1.41,1.9,1.9,0,0,0-1.44-.47,1.95,1.95,0,0,0-2,1.84v5.83h-1.51V94.42a1.67,1.67,0,0,0-1.41-1.91,1.42,1.42,0,0,0-.46,0,2,2,0,0,0-2,1.26v6.41h-1.5V91.39Z" style="fill:#af673f"/><path d="M131.61,91.39v9.8c0,1.69-.77,2.53-2.3,2.53a2.91,2.91,0,0,1-.92-.15v-1.19a3.08,3.08,0,0,0,.68.07,1,1,0,0,0,.77-.27,1.34,1.34,0,0,0,.26-1V91.39ZM130,89.07a.87.87,0,0,1,.22-.61,1,1,0,0,1,1.32,0,.89.89,0,0,1,.23.62.81.81,0,0,1-.76.85.56.56,0,0,1-.13,0,.85.85,0,0,1-.66-.24A.87.87,0,0,1,130,89.07Z" style="fill:#af673f"/><path d="M139.45,99.31a3.19,3.19,0,0,1-2.57,1,2.76,2.76,0,0,1-2.14-.82,3.53,3.53,0,0,1-.74-2.41V91.39h1.5v5.67c0,1.33.54,2,1.62,2a2.25,2.25,0,0,0,2.29-1.28V91.39h1.5v8.78h-1.43Z" style="fill:#af673f"/><path d="M148.31,97.85a1.12,1.12,0,0,0-.46-.95,4.34,4.34,0,0,0-1.6-.58,7.65,7.65,0,0,1-1.81-.58,2.55,2.55,0,0,1-1-.81,1.93,1.93,0,0,1-.32-1.12A2.27,2.27,0,0,1,144,92a3.56,3.56,0,0,1,2.33-.75,3.65,3.65,0,0,1,2.42.77,2.45,2.45,0,0,1,.93,2h-1.51a1.35,1.35,0,0,0-.52-1.06,2.29,2.29,0,0,0-2.6-.09,1.11,1.11,0,0,0-.46.93.9.9,0,0,0,.43.82,5.37,5.37,0,0,0,1.55.53,8.26,8.26,0,0,1,1.82.6,2.62,2.62,0,0,1,1,.84,2.12,2.12,0,0,1,.34,1.2,2.23,2.23,0,0,1-.94,1.89,4,4,0,0,1-2.44.71,4.46,4.46,0,0,1-1.87-.37,3,3,0,0,1-1.27-1,2.5,2.5,0,0,1-.46-1.45h1.5a1.57,1.57,0,0,0,.6,1.2,2.34,2.34,0,0,0,1.49.44,2.44,2.44,0,0,0,1.37-.35A1,1,0,0,0,148.31,97.85Z" style="fill:#af673f"/><path d="M153.8,89.27V91.4h1.64v1.16H153.8V98a1.23,1.23,0,0,0,.22.79.91.91,0,0,0,.75.26,3.38,3.38,0,0,0,.71-.1v1.21a4.43,4.43,0,0,1-1.15.16,1.87,1.87,0,0,1-1.52-.61A2.62,2.62,0,0,1,152.3,98V92.56h-1.6V91.39h1.6V89.27Z" style="fill:#af673f"/><path d="M166.73,100.18a2.87,2.87,0,0,1-.21-.92,3.35,3.35,0,0,1-2.5,1.09,3.11,3.11,0,0,1-2.13-.73,2.37,2.37,0,0,1-.83-1.86,2.48,2.48,0,0,1,1-2.13,5,5,0,0,1,2.93-.76h1.46v-.69a1.7,1.7,0,0,0-.47-1.25,1.86,1.86,0,0,0-1.39-.47,2.18,2.18,0,0,0-1.35.41,1.19,1.19,0,0,0-.54,1h-1.51a2.11,2.11,0,0,1,.47-1.27,3.18,3.18,0,0,1,1.27-1,4.23,4.23,0,0,1,1.76-.36,3.47,3.47,0,0,1,2.38.76,2.73,2.73,0,0,1,.89,2.09v4a5,5,0,0,0,.31,1.92v.13ZM164.24,99a2.65,2.65,0,0,0,1.34-.37,2.22,2.22,0,0,0,.92-.95v-1.8h-1.18q-2.76,0-2.76,1.62a1.37,1.37,0,0,0,.47,1.1A1.77,1.77,0,0,0,164.24,99Z" style="fill:#af673f"/><path d="M175.46,97.85a1.12,1.12,0,0,0-.46-.95,4.34,4.34,0,0,0-1.6-.58,7.65,7.65,0,0,1-1.81-.58,2.55,2.55,0,0,1-1-.81,1.93,1.93,0,0,1-.32-1.12A2.26,2.26,0,0,1,171.2,92a3.56,3.56,0,0,1,2.33-.75A3.66,3.66,0,0,1,176,92a2.45,2.45,0,0,1,.93,2h-1.51a1.35,1.35,0,0,0-.52-1.06,2.29,2.29,0,0,0-2.6-.09,1.11,1.11,0,0,0-.46.93.9.9,0,0,0,.43.82,5.37,5.37,0,0,0,1.55.53,8.26,8.26,0,0,1,1.82.6,2.62,2.62,0,0,1,1,.84,2.12,2.12,0,0,1,.34,1.2,2.23,2.23,0,0,1-.94,1.89,4,4,0,0,1-2.44.71,4.46,4.46,0,0,1-1.87-.37,3,3,0,0,1-1.27-1,2.5,2.5,0,0,1-.46-1.45h1.5a1.57,1.57,0,0,0,.6,1.2,2.34,2.34,0,0,0,1.49.44,2.44,2.44,0,0,0,1.37-.35A1.06,1.06,0,0,0,175.46,97.85Z" style="fill:#af673f"/><path d="M186.68,100.34a3.84,3.84,0,0,1-2.91-1.17A4.35,4.35,0,0,1,182.65,96v-.28a5.37,5.37,0,0,1,.5-2.33,3.9,3.9,0,0,1,1.4-1.61,3.53,3.53,0,0,1,1.94-.58,3.29,3.29,0,0,1,2.66,1.13,4.85,4.85,0,0,1,.95,3.23v.63h-5.95a3.16,3.16,0,0,0,.76,2.1,2.38,2.38,0,0,0,1.85.8,2.65,2.65,0,0,0,1.35-.33,3.31,3.31,0,0,0,1-.86l.92.71A3.69,3.69,0,0,1,186.68,100.34Zm-.19-7.87a2,2,0,0,0-1.53.66A3.23,3.23,0,0,0,184.2,95h4.4v-.11a2.85,2.85,0,0,0-.62-1.77,1.88,1.88,0,0,0-1.49-.65Z" style="fill:#af673f"/><path d="M194.78,94.6l1.95-3.21h1.75l-2.87,4.34,3,4.44h-1.74l-2-3.29-2,3.29H191l3-4.44-2.87-4.34h1.74Z" style="fill:#af673f"/><path d="M203.44,99.11a2.15,2.15,0,0,0,1.4-.49,1.7,1.7,0,0,0,.67-1.22h1.42a2.68,2.68,0,0,1-.52,1.44,3.46,3.46,0,0,1-1.28,1.09,3.67,3.67,0,0,1-1.69.41,3.59,3.59,0,0,1-2.85-1.2,4.74,4.74,0,0,1-1.06-3.27v-.25a5.42,5.42,0,0,1,.47-2.28,3.57,3.57,0,0,1,1.35-1.55,3.82,3.82,0,0,1,2.08-.55,3.53,3.53,0,0,1,2.46.88,3.15,3.15,0,0,1,1,2.3h-1.42a2.09,2.09,0,0,0-.65-1.4,2,2,0,0,0-1.43-.55,2.1,2.1,0,0,0-1.77.82,3.85,3.85,0,0,0-.63,2.38V96a3.8,3.8,0,0,0,.63,2.34A2.11,2.11,0,0,0,203.44,99.11Z" style="fill:#af673f"/><path d="M208.62,89.07a.88.88,0,0,1,.22-.62.81.81,0,0,1,.66-.25.84.84,0,0,1,.67.25.9.9,0,1,1-1.55.62Zm1.62,11.11h-1.5V91.39h1.5Z" style="fill:#af673f"/><path d="M214.68,89.27V91.4h1.64v1.16h-1.64V98a1.23,1.23,0,0,0,.22.79.91.91,0,0,0,.75.26,3.38,3.38,0,0,0,.71-.1v1.21a4.43,4.43,0,0,1-1.15.16,1.87,1.87,0,0,1-1.52-.61,2.62,2.62,0,0,1-.51-1.73V92.56h-1.6V91.39h1.6V89.27Z" style="fill:#af673f"/><path d="M221.72,100.34a3.84,3.84,0,0,1-2.91-1.17A4.36,4.36,0,0,1,217.7,96v-.28a5.37,5.37,0,0,1,.5-2.33,3.9,3.9,0,0,1,1.4-1.61,3.53,3.53,0,0,1,1.94-.58,3.29,3.29,0,0,1,2.66,1.13,4.85,4.85,0,0,1,1,3.23v.63h-6a3.16,3.16,0,0,0,.76,2.1,2.38,2.38,0,0,0,1.85.8,2.65,2.65,0,0,0,1.35-.33,3.31,3.31,0,0,0,1-.86l.92.71A3.7,3.7,0,0,1,221.72,100.34Zm-.19-7.87a2,2,0,0,0-1.53.66,3.24,3.24,0,0,0-.76,1.85h4.4v-.11A2.85,2.85,0,0,0,223,93.1,1.91,1.91,0,0,0,221.53,92.47Z" style="fill:#af673f"/><path d="M226.52,95.71a5.12,5.12,0,0,1,1-3.25,3.27,3.27,0,0,1,4.58-.57,4,4,0,0,1,.42.4V87.71H234v12.47h-1.38l-.07-.94a3.07,3.07,0,0,1-2.51,1.1,3,3,0,0,1-2.49-1.25,5.21,5.21,0,0,1-1-3.26Zm1.5.17a3.86,3.86,0,0,0,.62,2.34,2,2,0,0,0,1.7.84,2.2,2.2,0,0,0,2.09-1.28v-4a2.21,2.21,0,0,0-2.07-1.24,2,2,0,0,0-1.72.85,4.27,4.27,0,0,0-.64,2.49Z" style="fill:#af673f"/><path d="M245.79,100.18a2.87,2.87,0,0,1-.21-.92,3.35,3.35,0,0,1-2.5,1.09A3.11,3.11,0,0,1,241,99.6a2.37,2.37,0,0,1-.83-1.86,2.48,2.48,0,0,1,1-2.13,5,5,0,0,1,2.93-.76h1.46v-.69a1.7,1.7,0,0,0-.47-1.25,1.86,1.86,0,0,0-1.39-.47,2.18,2.18,0,0,0-1.35.41,1.19,1.19,0,0,0-.54,1H240.3a2.11,2.11,0,0,1,.47-1.27,3.18,3.18,0,0,1,1.27-1,4.23,4.23,0,0,1,1.76-.36,3.47,3.47,0,0,1,2.38.76,2.73,2.73,0,0,1,.89,2.09v4a5,5,0,0,0,.31,1.92v.13ZM243.3,99a2.65,2.65,0,0,0,1.34-.37,2.22,2.22,0,0,0,.92-.95v-1.8h-1.18q-2.76,0-2.76,1.62a1.37,1.37,0,0,0,.47,1.1A1.77,1.77,0,0,0,243.3,99Z" style="fill:#af673f"/><path d="M256.85,95.88a5.24,5.24,0,0,1-.92,3.23,3,3,0,0,1-2.48,1.22,3.05,3.05,0,0,1-2.57-1.18l-.07,1h-1.38V87.71h1.5v4.65a3.28,3.28,0,0,1,5,.08,5.33,5.33,0,0,1,.91,3.31Zm-1.5-.17a4,4,0,0,0-.59-2.37,2,2,0,0,0-1.7-.84,2.21,2.21,0,0,0-2.13,1.38v3.8a2.27,2.27,0,0,0,2.15,1.38,2,2,0,0,0,1.68-.84,4.32,4.32,0,0,0,.58-2.51Z" style="fill:#af673f"/><path d="M258.34,95.7a5.17,5.17,0,0,1,.51-2.32,3.81,3.81,0,0,1,1.41-1.59,3.86,3.86,0,0,1,2.07-.56,3.68,3.68,0,0,1,2.9,1.24,4.78,4.78,0,0,1,1.11,3.3v.11a5.23,5.23,0,0,1-.49,2.3,3.72,3.72,0,0,1-1.4,1.59,3.88,3.88,0,0,1-2.1.57,3.7,3.7,0,0,1-2.89-1.24,4.75,4.75,0,0,1-1.11-3.29Zm1.51.18a3.79,3.79,0,0,0,.68,2.35,2.3,2.3,0,0,0,3.23.4,2.16,2.16,0,0,0,.4-.4,4.12,4.12,0,0,0,.67-2.51,3.69,3.69,0,0,0-.69-2.34,2.28,2.28,0,0,0-3.2-.42,2.09,2.09,0,0,0-.42.42A4.11,4.11,0,0,0,259.85,95.88Z" style="fill:#af673f"/><path d="M273.64,99.31a3.19,3.19,0,0,1-2.57,1,2.76,2.76,0,0,1-2.14-.82,3.53,3.53,0,0,1-.74-2.41V91.39h1.5v5.67c0,1.33.54,2,1.62,2a2.25,2.25,0,0,0,2.29-1.28V91.39h1.5v8.78h-1.43Z" style="fill:#af673f"/><path d="M279.42,89.27V91.4h1.64v1.16h-1.64V98a1.23,1.23,0,0,0,.22.79.91.91,0,0,0,.75.26,3.38,3.38,0,0,0,.71-.1v1.21a4.43,4.43,0,0,1-1.15.16,1.87,1.87,0,0,1-1.52-.61,2.62,2.62,0,0,1-.51-1.73V92.56h-1.6V91.39h1.6V89.27Z" style="fill:#af673f"/><path d="M287.16,100.18V88.36H291a4.49,4.49,0,0,1,2.89.8,2.88,2.88,0,0,1,1,2.35,2.4,2.4,0,0,1-.47,1.46,3.07,3.07,0,0,1-1.28,1,2.78,2.78,0,0,1,1.51,1,3,3,0,0,1,.56,1.79,3.14,3.14,0,0,1-1,2.5,4.24,4.24,0,0,1-2.91.91Zm1.56-6.78h2.35a2.49,2.49,0,0,0,1.64-.51,1.72,1.72,0,0,0,.61-1.39,1.67,1.67,0,0,0-.57-1.42,2.78,2.78,0,0,0-1.73-.44h-2.3Zm0,1.25V98.9h2.57a2.45,2.45,0,0,0,1.72-.56,2,2,0,0,0,.63-1.55c0-1.42-.77-2.13-2.32-2.13Z" style="fill:#af673f"/><path d="M296.87,95.7a5.17,5.17,0,0,1,.51-2.32,3.81,3.81,0,0,1,1.41-1.59,3.86,3.86,0,0,1,2.07-.56,3.68,3.68,0,0,1,2.9,1.24,4.78,4.78,0,0,1,1.11,3.3v.11a5.23,5.23,0,0,1-.49,2.3,3.72,3.72,0,0,1-1.4,1.59,3.88,3.88,0,0,1-2.1.57A3.68,3.68,0,0,1,298,99.1a4.75,4.75,0,0,1-1.11-3.29Zm1.51.18a3.79,3.79,0,0,0,.68,2.35,2.3,2.3,0,0,0,3.23.4,2.16,2.16,0,0,0,.4-.4,4.12,4.12,0,0,0,.67-2.51,3.69,3.69,0,0,0-.69-2.34,2.28,2.28,0,0,0-3.2-.42,2.09,2.09,0,0,0-.42.42A4.11,4.11,0,0,0,298.38,95.88Z" style="fill:#af673f"/><path d="M306.35,95.7a5.17,5.17,0,0,1,.51-2.32,3.81,3.81,0,0,1,1.41-1.59,3.86,3.86,0,0,1,2.07-.56,3.68,3.68,0,0,1,2.9,1.24,4.78,4.78,0,0,1,1.11,3.3v.11a5.23,5.23,0,0,1-.49,2.3,3.72,3.72,0,0,1-1.4,1.59,3.88,3.88,0,0,1-2.1.57,3.7,3.7,0,0,1-2.89-1.24,4.75,4.75,0,0,1-1.11-3.29Zm1.51.18a3.79,3.79,0,0,0,.68,2.35,2.3,2.3,0,0,0,3.23.4,2.16,2.16,0,0,0,.4-.4,4.12,4.12,0,0,0,.67-2.51,3.69,3.69,0,0,0-.69-2.34A2.28,2.28,0,0,0,309,93a2.09,2.09,0,0,0-.42.42,4.11,4.11,0,0,0-.67,2.5Z" style="fill:#af673f"/><path d="M318.68,96.11l-.94,1v3.08h-1.5V87.71h1.5v7.54l.8-1,2.74-2.89h1.83L319.69,95l3.81,5.11h-1.76Z" style="fill:#af673f"/><path d="M329.77,97.85a1.12,1.12,0,0,0-.46-.95,4.34,4.34,0,0,0-1.6-.58,7.65,7.65,0,0,1-1.81-.58,2.55,2.55,0,0,1-1-.81,1.93,1.93,0,0,1-.32-1.12A2.31,2.31,0,0,1,325.5,92a3.56,3.56,0,0,1,2.33-.75,3.65,3.65,0,0,1,2.42.77,2.45,2.45,0,0,1,.93,2h-1.51a1.35,1.35,0,0,0-.52-1.06,2,2,0,0,0-1.32-.45,2.1,2.1,0,0,0-1.28.36,1.11,1.11,0,0,0-.46.93.9.9,0,0,0,.43.82,5.37,5.37,0,0,0,1.55.53,8.26,8.26,0,0,1,1.82.6,2.62,2.62,0,0,1,1,.84,2.12,2.12,0,0,1,.34,1.2,2.23,2.23,0,0,1-.94,1.89,4,4,0,0,1-2.44.71A4.52,4.52,0,0,1,326,100a3,3,0,0,1-1.27-1,2.5,2.5,0,0,1-.46-1.45h1.5a1.57,1.57,0,0,0,.6,1.2,2.34,2.34,0,0,0,1.49.44,2.44,2.44,0,0,0,1.37-.35A1,1,0,0,0,329.77,97.85Z" style="fill:#af673f"/><path d="M53,109a.88.88,0,0,1,.22-.62.81.81,0,0,1,.66-.25.84.84,0,0,1,.67.25A.9.9,0,1,1,53,109Zm1.62,11.11h-1.5v-8.78h1.5Z" style="fill:#af673f"/><path d="M58.43,111.34v1.1a3.22,3.22,0,0,1,2.63-1.27c1.85,0,2.79,1,2.81,3.14v5.8h-1.5V114.3a2,2,0,0,0-.43-1.4,1.75,1.75,0,0,0-1.33-.45,2.15,2.15,0,0,0-1.28.39,2.67,2.67,0,0,0-.86,1v6.26H57v-8.78Z" style="fill:#af673f"/><path d="M79.61,120.12H78v-5.46H72v5.46H70.53V108.3h1.56v5.08h6V108.3h1.57Z" style="fill:#af673f"/><path d="M81.75,115.65a5.17,5.17,0,0,1,.51-2.32,3.81,3.81,0,0,1,1.41-1.59,3.86,3.86,0,0,1,2.07-.56,3.72,3.72,0,0,1,2.9,1.24,4.78,4.78,0,0,1,1.11,3.3v.11a5.23,5.23,0,0,1-.49,2.3,3.72,3.72,0,0,1-1.4,1.59,3.88,3.88,0,0,1-2.1.57,3.7,3.7,0,0,1-2.9-1.29,4.75,4.75,0,0,1-1.11-3.29Zm1.51.18a3.76,3.76,0,0,0,.68,2.34,2.3,2.3,0,0,0,3.23.4,2.16,2.16,0,0,0,.4-.4,4.12,4.12,0,0,0,.67-2.51,3.75,3.75,0,0,0-.69-2.34,2.28,2.28,0,0,0-3.61,0A4.05,4.05,0,0,0,83.26,115.83Z" style="fill:#af673f"/><path d="M93,111.34v1a3.26,3.26,0,0,1,2.61-1.14,2.52,2.52,0,0,1,2.51,1.41,3.32,3.32,0,0,1,1.14-1,3.41,3.41,0,0,1,1.66-.39q2.89,0,2.94,3.06v5.88h-1.5v-5.79a2,2,0,0,0-.43-1.41,1.9,1.9,0,0,0-1.44-.47,1.95,1.95,0,0,0-2,1.84v5.83H97v-5.75a1.66,1.66,0,0,0-1.38-1.91,1.61,1.61,0,0,0-.49,0,2,2,0,0,0-2,1.26v6.41h-1.5v-8.78Z" style="fill:#af673f"/><path d="M109.84,120.28a3.84,3.84,0,0,1-2.91-1.17,4.34,4.34,0,0,1-1.12-3.14v-.28a5.37,5.37,0,0,1,.5-2.33,3.9,3.9,0,0,1,1.4-1.61,3.53,3.53,0,0,1,1.94-.58,3.29,3.29,0,0,1,2.66,1.13,4.85,4.85,0,0,1,1,3.23v.62h-6a3.16,3.16,0,0,0,.76,2.1,2.38,2.38,0,0,0,1.85.8,2.54,2.54,0,0,0,1.35-.32,3.31,3.31,0,0,0,1-.86l.92.71A3.67,3.67,0,0,1,109.84,120.28Zm-.19-7.87a2,2,0,0,0-1.53.66,3.24,3.24,0,0,0-.76,1.85h4.4v-.11a2.85,2.85,0,0,0-.62-1.77A1.91,1.91,0,0,0,109.65,112.41Z" style="fill:#af673f"/><path d="M120.11,117.79a1.09,1.09,0,0,0-.46-1,4.52,4.52,0,0,0-1.6-.58,7.65,7.65,0,0,1-1.81-.58,2.55,2.55,0,0,1-1-.81,1.93,1.93,0,0,1-.32-1.12,2.27,2.27,0,0,1,.91-1.83,3.56,3.56,0,0,1,2.33-.75,3.65,3.65,0,0,1,2.42.77,2.45,2.45,0,0,1,.93,2H120a1.35,1.35,0,0,0-.52-1.06,2.29,2.29,0,0,0-2.6-.09,1.11,1.11,0,0,0-.46.93.9.9,0,0,0,.43.82,5.37,5.37,0,0,0,1.55.53,8.26,8.26,0,0,1,1.82.6,2.62,2.62,0,0,1,1,.84,2.12,2.12,0,0,1,.34,1.2,2.23,2.23,0,0,1-.94,1.89,4,4,0,0,1-2.44.71,4.46,4.46,0,0,1-1.87-.37,3,3,0,0,1-1.27-1,2.5,2.5,0,0,1-.46-1.45h1.5a1.57,1.57,0,0,0,.6,1.2,2.83,2.83,0,0,0,2.86.1A1.06,1.06,0,0,0,120.11,117.79Z" style="fill:#af673f"/><path d="M133.1,120.12a2.87,2.87,0,0,1-.21-.92,3.35,3.35,0,0,1-2.5,1.09,3.11,3.11,0,0,1-2.13-.73,2.37,2.37,0,0,1-.83-1.86,2.48,2.48,0,0,1,1-2.13,5,5,0,0,1,2.93-.76h1.46v-.69a1.7,1.7,0,0,0-.47-1.25,1.86,1.86,0,0,0-1.39-.47,2.18,2.18,0,0,0-1.35.41,1.19,1.19,0,0,0-.54,1h-1.51a2.11,2.11,0,0,1,.47-1.27,3.18,3.18,0,0,1,1.27-1,4.23,4.23,0,0,1,1.76-.36,3.47,3.47,0,0,1,2.38.76,2.73,2.73,0,0,1,.89,2.09v4a5,5,0,0,0,.31,1.92v.13ZM130.61,119a2.65,2.65,0,0,0,1.34-.37,2.22,2.22,0,0,0,.92-.95v-1.8h-1.18q-2.76,0-2.76,1.62a1.37,1.37,0,0,0,.47,1.1A1.77,1.77,0,0,0,130.61,119Z" style="fill:#af673f"/><path d="M141.84,117.79a1.09,1.09,0,0,0-.46-1,4.52,4.52,0,0,0-1.6-.58,7.65,7.65,0,0,1-1.81-.58,2.55,2.55,0,0,1-1-.81,1.93,1.93,0,0,1-.32-1.12,2.27,2.27,0,0,1,.91-1.83,3.56,3.56,0,0,1,2.33-.75,3.65,3.65,0,0,1,2.42.77,2.45,2.45,0,0,1,.93,2h-1.51a1.35,1.35,0,0,0-.52-1.06,2.29,2.29,0,0,0-2.6-.09,1.11,1.11,0,0,0-.46.93.9.9,0,0,0,.43.82,5.37,5.37,0,0,0,1.55.53,8.26,8.26,0,0,1,1.82.6,2.62,2.62,0,0,1,1,.84,2.12,2.12,0,0,1,.34,1.2,2.23,2.23,0,0,1-.94,1.89,4,4,0,0,1-2.44.71,4.46,4.46,0,0,1-1.87-.37,3,3,0,0,1-1.27-1,2.5,2.5,0,0,1-.46-1.45h1.5a1.57,1.57,0,0,0,.6,1.2,2.83,2.83,0,0,0,2.86.1A1.06,1.06,0,0,0,141.84,117.79Z" style="fill:#af673f"/><path d="M150.82,111.34v1a3.26,3.26,0,0,1,2.61-1.14,2.52,2.52,0,0,1,2.51,1.41,3.32,3.32,0,0,1,1.14-1,3.41,3.41,0,0,1,1.66-.39q2.89,0,2.94,3.06v5.88h-1.5v-5.79a2,2,0,0,0-.43-1.41,1.9,1.9,0,0,0-1.44-.47,1.95,1.95,0,0,0-2,1.84v5.83H154.8v-5.75a1.66,1.66,0,0,0-1.38-1.91,1.61,1.61,0,0,0-.49,0,2,2,0,0,0-2,1.26v6.41h-1.5v-8.78Z" style="fill:#af673f"/><path d="M166.85,117.92l2-6.58h1.61L167,121.48c-.55,1.46-1.41,2.19-2.6,2.19h-.28l-.56-.11v-1.22H164a2,2,0,0,0,1.19-.31,2.24,2.24,0,0,0,.7-1.13l.33-.89L163,111.34h1.64Z" style="fill:#af673f"/><path d="M178.41,116.05l-.94,1v3.08H176V107.66h1.5v7.54l.8-1,2.73-2.89h1.83L179.41,115l3.81,5.11h-1.76Z" style="fill:#af673f"/><path d="M184.39,109a.88.88,0,0,1,.22-.62.81.81,0,0,1,.66-.25.84.84,0,0,1,.67.25.9.9,0,1,1-1.55.62ZM186,120.12h-1.5v-8.78H186Z" style="fill:#af673f"/><path d="M188,115.66a5.12,5.12,0,0,1,1-3.25,3.27,3.27,0,0,1,4.58-.57,4,4,0,0,1,.42.4v-4.58h1.5v12.47h-1.38l-.07-.94a3.07,3.07,0,0,1-2.51,1.1A3,3,0,0,1,189,119a5.21,5.21,0,0,1-1-3.26Zm1.5.17a3.86,3.86,0,0,0,.62,2.34,2,2,0,0,0,1.7.84,2.2,2.2,0,0,0,2.09-1.28v-4a2.21,2.21,0,0,0-2.07-1.24,2,2,0,0,0-1.72.85,4.25,4.25,0,0,0-.57,2.49Z" style="fill:#af673f"/><path d="M202.9,117.79a1.09,1.09,0,0,0-.46-1,4.52,4.52,0,0,0-1.6-.58,7.65,7.65,0,0,1-1.81-.58,2.55,2.55,0,0,1-1-.81,1.93,1.93,0,0,1-.32-1.12,2.27,2.27,0,0,1,.91-1.83,3.56,3.56,0,0,1,2.33-.75,3.65,3.65,0,0,1,2.42.77,2.45,2.45,0,0,1,.93,2h-1.51a1.34,1.34,0,0,0-.52-1.06,2.29,2.29,0,0,0-2.6-.09,1.11,1.11,0,0,0-.46.93.9.9,0,0,0,.43.82,5.37,5.37,0,0,0,1.55.53,8.26,8.26,0,0,1,1.82.6,2.62,2.62,0,0,1,1,.84,2.12,2.12,0,0,1,.34,1.2,2.23,2.23,0,0,1-.94,1.89,4,4,0,0,1-2.44.71,4.46,4.46,0,0,1-1.87-.37,3,3,0,0,1-1.27-1,2.5,2.5,0,0,1-.46-1.45h1.5a1.57,1.57,0,0,0,.6,1.2,2.83,2.83,0,0,0,2.86.1A1.06,1.06,0,0,0,202.9,117.79Z" style="fill:#af673f"/><path d="M206.39,119.33a.91.91,0,0,1,.23-.65.88.88,0,0,1,.69-.26.86.86,0,0,1,.94.91.87.87,0,0,1-.24.63.91.91,0,0,1-.7.25.87.87,0,0,1-.69-.25A.87.87,0,0,1,206.39,119.33Z" style="fill:#af673f"/><path d="M216.75,120.12H215.2V108.3h1.56Z" style="fill:#af673f"/><path d="M220.11,120.12V112.5h-1.39v-1.16h1.39v-.9a3,3,0,0,1,.75-2.18,2.83,2.83,0,0,1,2.13-.77,3.77,3.77,0,0,1,1,.14l-.08,1.21a4.43,4.43,0,0,0-.81-.07,1.45,1.45,0,0,0-1.13.43,1.71,1.71,0,0,0-.4,1.23v.93h1.88v1.16h-1.87v7.62Z" style="fill:#af673f"/><path d="M229.26,109a.88.88,0,0,1,.22-.62.81.81,0,0,1,.66-.25.84.84,0,0,1,.67.25.89.89,0,0,1,.23.62.93.93,0,0,1-1,.85.92.92,0,0,1-.54-.24A.86.86,0,0,1,229.26,109Zm1.62,11.11h-1.5v-8.78h1.5Z" style="fill:#af673f"/><path d="M235.32,109.21v2.13H237v1.16h-1.64V118a1.23,1.23,0,0,0,.22.79.91.91,0,0,0,.75.26,3.38,3.38,0,0,0,.71-.1v1.21a4.43,4.43,0,0,1-1.15.16,1.87,1.87,0,0,1-1.52-.61,2.62,2.62,0,0,1-.51-1.73V112.5h-1.6v-1.16h1.6v-2.13Z" style="fill:#af673f"/><path d="M250.6,118.05l1.69-6.71h1.5l-2.56,8.78H250l-2.13-6.66-2.08,6.66h-1.22L242,111.34h1.49l1.73,6.57,2-6.57h1.21Z" style="fill:#af673f"/><path d="M260.74,120.12a2.87,2.87,0,0,1-.21-.92,3.35,3.35,0,0,1-2.5,1.09,3.11,3.11,0,0,1-2.13-.73,2.37,2.37,0,0,1-.83-1.86,2.48,2.48,0,0,1,1-2.13,5,5,0,0,1,2.93-.76h1.46v-.69a1.7,1.7,0,0,0-.47-1.25,1.86,1.86,0,0,0-1.39-.47,2.18,2.18,0,0,0-1.35.41,1.19,1.19,0,0,0-.54,1H255.2a2.11,2.11,0,0,1,.47-1.27,3.18,3.18,0,0,1,1.27-1,4.23,4.23,0,0,1,1.76-.36,3.47,3.47,0,0,1,2.38.76A2.74,2.74,0,0,1,262,114v4a5,5,0,0,0,.31,1.92v.13ZM258.25,119a2.65,2.65,0,0,0,1.34-.37,2.22,2.22,0,0,0,.92-.95v-1.8h-1.18q-2.76,0-2.76,1.62a1.37,1.37,0,0,0,.47,1.1A1.77,1.77,0,0,0,258.25,119Z" style="fill:#af673f"/><path d="M269.47,117.79a1.09,1.09,0,0,0-.46-1,4.52,4.52,0,0,0-1.6-.58,7.65,7.65,0,0,1-1.81-.58,2.55,2.55,0,0,1-1-.81,1.93,1.93,0,0,1-.32-1.12,2.27,2.27,0,0,1,.91-1.83,3.56,3.56,0,0,1,2.33-.75,3.65,3.65,0,0,1,2.42.77,2.45,2.45,0,0,1,.93,2h-1.51a1.35,1.35,0,0,0-.52-1.06,2.29,2.29,0,0,0-2.6-.09,1.11,1.11,0,0,0-.46.93.9.9,0,0,0,.43.82,5.37,5.37,0,0,0,1.55.53,8.26,8.26,0,0,1,1.82.6,2.62,2.62,0,0,1,1,.84,2.12,2.12,0,0,1,.34,1.2,2.23,2.23,0,0,1-.94,1.89,4,4,0,0,1-2.44.71,4.46,4.46,0,0,1-1.87-.37,3,3,0,0,1-1.27-1,2.5,2.5,0,0,1-.46-1.45h1.5a1.57,1.57,0,0,0,.6,1.2,2.83,2.83,0,0,0,2.86.1A1.06,1.06,0,0,0,269.47,117.79Z" style="fill:#af673f"/><path d="M274.35,111.34v1.1a3.22,3.22,0,0,1,2.63-1.27c1.85,0,2.79,1,2.81,3.14v5.8h-1.5V114.3a2,2,0,0,0-.43-1.4,1.75,1.75,0,0,0-1.33-.45,2.15,2.15,0,0,0-1.28.39,2.67,2.67,0,0,0-.86,1v6.26h-1.5v-8.78Z" style="fill:#af673f"/><path d="M281.56,111.63l-.85-.58a4,4,0,0,0,.78-2.22v-1.17H283v1a4,4,0,0,1-1.41,2.92Z" style="fill:#af673f"/><path d="M286.81,109.21v2.13h1.64v1.16h-1.64V118a1.23,1.23,0,0,0,.22.79.91.91,0,0,0,.75.26,3.38,3.38,0,0,0,.71-.1v1.21a4.43,4.43,0,0,1-1.15.16,1.87,1.87,0,0,1-1.52-.61,2.62,2.62,0,0,1-.51-1.73V112.5h-1.6v-1.16h1.6v-2.13Z" style="fill:#af673f"/><path d="M295.05,120.12V112.5h-1.39v-1.16h1.39v-.9a3,3,0,0,1,.75-2.18,2.83,2.83,0,0,1,2.13-.77,3.77,3.77,0,0,1,1,.14l-.08,1.21a4.43,4.43,0,0,0-.81-.07,1.45,1.45,0,0,0-1.13.43,1.71,1.71,0,0,0-.4,1.23v.93h1.88v1.16h-1.87v7.62Z" style="fill:#af673f"/><path d="M299.69,115.65a5.17,5.17,0,0,1,.51-2.32,3.81,3.81,0,0,1,1.41-1.59,3.86,3.86,0,0,1,2.07-.56,3.72,3.72,0,0,1,2.9,1.24,4.78,4.78,0,0,1,1.11,3.3v.11a5.23,5.23,0,0,1-.49,2.3,3.72,3.72,0,0,1-1.4,1.59,3.88,3.88,0,0,1-2.1.57,3.67,3.67,0,0,1-2.9-1.29,4.75,4.75,0,0,1-1.11-3.29Zm1.51.18a3.76,3.76,0,0,0,.68,2.34,2.3,2.3,0,0,0,3.23.4,2.16,2.16,0,0,0,.4-.4,4.12,4.12,0,0,0,.67-2.51,3.75,3.75,0,0,0-.69-2.34,2.28,2.28,0,0,0-3.61,0A4.05,4.05,0,0,0,301.2,115.83Z" style="fill:#af673f"/><path d="M313.81,112.69a4.52,4.52,0,0,0-.74-.06,2,2,0,0,0-2,1.26v6.23h-1.5v-8.78H311v1a2.34,2.34,0,0,1,2.09-1.18,1.53,1.53,0,0,1,.67.11Z" style="fill:#af673f"/><path d="M319.54,120.12V108.3h3.86a4.43,4.43,0,0,1,2.89.79,2.88,2.88,0,0,1,1,2.35,2.4,2.4,0,0,1-.47,1.46,3.07,3.07,0,0,1-1.28,1,2.78,2.78,0,0,1,1.51,1,3,3,0,0,1,.56,1.79,3.14,3.14,0,0,1-1,2.5,4.24,4.24,0,0,1-2.91.91Zm1.56-6.78h2.35a2.49,2.49,0,0,0,1.64-.51,1.72,1.72,0,0,0,.61-1.39,1.67,1.67,0,0,0-.57-1.42,2.78,2.78,0,0,0-1.73-.44h-2.3Zm0,1.25v4.25h2.57a2.45,2.45,0,0,0,1.72-.56,2,2,0,0,0,.63-1.55c0-1.42-.77-2.13-2.32-2.13Z" style="fill:#af673f"/><path d="M331.56,120.12H330V108.3h1.56Z" style="fill:#af673f"/><path d="M343.49,120.12h-1.57v-5.46h-6v5.46h-1.56V108.3H336v5.08h6V108.3h1.57Z" style="fill:#af673f"/><path d="M52.58,135.59a5.17,5.17,0,0,1,.51-2.32,3.81,3.81,0,0,1,1.41-1.59,3.86,3.86,0,0,1,2.07-.56,3.72,3.72,0,0,1,2.9,1.24,4.78,4.78,0,0,1,1.11,3.3v.11a5.23,5.23,0,0,1-.49,2.3,3.72,3.72,0,0,1-1.4,1.59,3.88,3.88,0,0,1-2.1.57,3.72,3.72,0,0,1-2.9-1.23,4.75,4.75,0,0,1-1.11-3.29Zm1.51.18a3.76,3.76,0,0,0,.68,2.34,2.3,2.3,0,0,0,3.23.4,2.16,2.16,0,0,0,.4-.4,4.12,4.12,0,0,0,.67-2.51,3.75,3.75,0,0,0-.69-2.34,2.28,2.28,0,0,0-3.61,0,4.05,4.05,0,0,0-.68,2.53Z" style="fill:#af673f"/><path d="M67.88,139.2a3.19,3.19,0,0,1-2.57,1,2.76,2.76,0,0,1-2.14-.82,3.53,3.53,0,0,1-.74-2.41v-5.71h1.5V137c0,1.33.54,2,1.62,2a2.25,2.25,0,0,0,2.29-1.28v-6.39h1.5v8.78H67.91Z" style="fill:#af673f"/><path d="M75.86,132.63a4.52,4.52,0,0,0-.74-.06,2,2,0,0,0-2,1.26v6.23h-1.5v-8.78h1.46v1a2.34,2.34,0,0,1,2.09-1.18,1.53,1.53,0,0,1,.67.11Z" style="fill:#af673f"/><path d="M86.47,137.74a1.09,1.09,0,0,0-.46-1,4.52,4.52,0,0,0-1.6-.58,7.65,7.65,0,0,1-1.81-.58,2.55,2.55,0,0,1-1-.81,1.93,1.93,0,0,1-.32-1.12,2.27,2.27,0,0,1,.91-1.83,3.56,3.56,0,0,1,2.33-.75,3.65,3.65,0,0,1,2.42.77,2.45,2.45,0,0,1,.93,2H86.38a1.35,1.35,0,0,0-.52-1.06,2.29,2.29,0,0,0-2.6-.09,1.11,1.11,0,0,0-.46.93.9.9,0,0,0,.43.82,5.37,5.37,0,0,0,1.55.53,8.26,8.26,0,0,1,1.82.6,2.62,2.62,0,0,1,1,.84,2.12,2.12,0,0,1,.34,1.2,2.23,2.23,0,0,1-.94,1.89,4,4,0,0,1-2.44.71,4.46,4.46,0,0,1-1.87-.37,3,3,0,0,1-1.27-1,2.5,2.5,0,0,1-.46-1.45h1.5a1.57,1.57,0,0,0,.6,1.2,2.83,2.83,0,0,0,2.86.1A1.06,1.06,0,0,0,86.47,137.74Z" style="fill:#af673f"/><path d="M92,129.16v2.13h1.6v1.16H92v5.45a1.23,1.23,0,0,0,.22.79A.91.91,0,0,0,93,139a3.38,3.38,0,0,0,.71-.1v1.21a4.43,4.43,0,0,1-1.15.16,1.87,1.87,0,0,1-1.52-.61,2.62,2.62,0,0,1-.51-1.73v-5.45H88.9v-1.16h1.6v-2.13Z" style="fill:#af673f"/><path d="M100.78,139.2a3.19,3.19,0,0,1-2.57,1,2.76,2.76,0,0,1-2.14-.82,3.53,3.53,0,0,1-.74-2.41v-5.71h1.5V137c0,1.33.54,2,1.62,2a2.25,2.25,0,0,0,2.29-1.28v-6.39h1.5v8.78h-1.43Z" style="fill:#af673f"/><path d="M104.16,135.6a5.12,5.12,0,0,1,1-3.25,3.27,3.27,0,0,1,4.58-.57,4,4,0,0,1,.42.4V127.6h1.5v12.47h-1.38l-.07-.94a3.07,3.07,0,0,1-2.51,1.1,3,3,0,0,1-2.49-1.25,5.21,5.21,0,0,1-1-3.26Zm1.5.17a3.86,3.86,0,0,0,.62,2.34,2,2,0,0,0,1.7.84,2.2,2.2,0,0,0,2.09-1.28v-4A2.2,2.2,0,0,0,108,132.4a2,2,0,0,0-1.72.85A4.31,4.31,0,0,0,105.66,135.77Z" style="fill:#af673f"/><path d="M117.54,140.23a3.84,3.84,0,0,1-2.91-1.17,4.34,4.34,0,0,1-1.12-3.14v-.28a5.37,5.37,0,0,1,.5-2.33,3.9,3.9,0,0,1,1.4-1.61,3.53,3.53,0,0,1,1.94-.58,3.29,3.29,0,0,1,2.66,1.13,4.85,4.85,0,0,1,.95,3.23v.62h-6a3.16,3.16,0,0,0,.76,2.1,2.38,2.38,0,0,0,1.85.8,2.54,2.54,0,0,0,1.35-.32,3.31,3.31,0,0,0,1-.86l.92.71A3.7,3.7,0,0,1,117.54,140.23Zm-.19-7.87a2,2,0,0,0-1.53.66,3.24,3.24,0,0,0-.76,1.85h4.4v-.11a2.85,2.85,0,0,0-.62-1.77A1.91,1.91,0,0,0,117.35,132.36Z" style="fill:#af673f"/><path d="M124.12,131.29v1.1a3.22,3.22,0,0,1,2.63-1.27c1.85,0,2.79,1,2.81,3.14v5.8h-1.5v-5.81a2,2,0,0,0-.43-1.4,1.75,1.75,0,0,0-1.33-.45,2.15,2.15,0,0,0-1.28.39,2.67,2.67,0,0,0-.86,1v6.26h-1.5v-8.78Z" style="fill:#af673f"/><path d="M133.91,129.16v2.13h1.64v1.16h-1.64v5.45a1.23,1.23,0,0,0,.22.79.91.91,0,0,0,.75.26,3.38,3.38,0,0,0,.71-.1v1.21a4.43,4.43,0,0,1-1.15.16,1.87,1.87,0,0,1-1.52-.61,2.62,2.62,0,0,1-.51-1.73v-5.45h-1.6v-1.16h1.6v-2.13Z" style="fill:#af673f"/><path d="M142.41,137.74a1.09,1.09,0,0,0-.46-1,4.52,4.52,0,0,0-1.6-.58,7.65,7.65,0,0,1-1.81-.58,2.55,2.55,0,0,1-1-.81,1.93,1.93,0,0,1-.32-1.12,2.27,2.27,0,0,1,.91-1.83,3.56,3.56,0,0,1,2.33-.75,3.65,3.65,0,0,1,2.42.77,2.45,2.45,0,0,1,.93,2H142.3a1.35,1.35,0,0,0-.52-1.06,2.29,2.29,0,0,0-2.6-.09,1.11,1.11,0,0,0-.46.93.9.9,0,0,0,.43.82,5.37,5.37,0,0,0,1.55.53,8.26,8.26,0,0,1,1.82.6,2.62,2.62,0,0,1,1,.84,2.12,2.12,0,0,1,.34,1.2,2.23,2.23,0,0,1-.94,1.89,4,4,0,0,1-2.44.71,4.46,4.46,0,0,1-1.87-.37,3,3,0,0,1-1.27-1,2.5,2.5,0,0,1-.46-1.45h1.5a1.57,1.57,0,0,0,.6,1.2,2.83,2.83,0,0,0,2.86.1A1.06,1.06,0,0,0,142.41,137.74Z" style="fill:#af673f"/><path d="M157.76,138l1.69-6.71H161l-2.56,8.78h-1.22L155,133.41l-2,6.66h-1.22l-2.55-8.78h1.49l1.73,6.57,2-6.57h1.21Z" style="fill:#af673f"/><path d="M162.08,135.59a5.17,5.17,0,0,1,.51-2.32,3.81,3.81,0,0,1,1.41-1.59,3.86,3.86,0,0,1,2.07-.56,3.72,3.72,0,0,1,2.9,1.24,4.78,4.78,0,0,1,1.11,3.3v.11a5.23,5.23,0,0,1-.49,2.3,3.72,3.72,0,0,1-1.4,1.59,3.88,3.88,0,0,1-2.1.57A3.7,3.7,0,0,1,163.2,139a4.75,4.75,0,0,1-1.11-3.29Zm1.51.18a3.76,3.76,0,0,0,.68,2.34,2.3,2.3,0,0,0,3.23.4,2.16,2.16,0,0,0,.4-.4,4.12,4.12,0,0,0,.67-2.51,3.75,3.75,0,0,0-.69-2.34,2.28,2.28,0,0,0-3.61,0,4.05,4.05,0,0,0-.68,2.53Z" style="fill:#af673f"/><path d="M177.38,139.2a3.19,3.19,0,0,1-2.57,1,2.76,2.76,0,0,1-2.14-.82,3.53,3.53,0,0,1-.74-2.41v-5.71h1.5V137c0,1.33.54,2,1.62,2a2.25,2.25,0,0,0,2.29-1.28v-6.39h1.5v8.78h-1.43Z" style="fill:#af673f"/><path d="M182.75,140.07h-1.5V127.6h1.5Z" style="fill:#af673f"/><path d="M184.79,135.6a5.12,5.12,0,0,1,1-3.25,3.27,3.27,0,0,1,4.58-.57,4,4,0,0,1,.42.4V127.6h1.5v12.47h-1.38l-.07-.94a3.07,3.07,0,0,1-2.51,1.1,3,3,0,0,1-2.49-1.25,5.21,5.21,0,0,1-1-3.26Zm1.5.17a3.86,3.86,0,0,0,.62,2.34,2,2,0,0,0,1.7.84,2.2,2.2,0,0,0,2.09-1.28v-4a2.21,2.21,0,0,0-2.07-1.24,2,2,0,0,0-1.72.85A4.29,4.29,0,0,0,186.29,135.77Z" style="fill:#af673f"/><path d="M200.06,131.29v1.1a3.22,3.22,0,0,1,2.63-1.27c1.85,0,2.79,1,2.81,3.14v5.8H204v-5.81a2,2,0,0,0-.44-1.4,1.75,1.75,0,0,0-1.33-.45,2.15,2.15,0,0,0-1.28.39,2.67,2.67,0,0,0-.86,1v6.26h-1.5v-8.78Z" style="fill:#af673f"/><path d="M207.41,135.59a5.17,5.17,0,0,1,.51-2.32,3.81,3.81,0,0,1,1.41-1.59,3.86,3.86,0,0,1,2.07-.56,3.72,3.72,0,0,1,2.9,1.24,4.78,4.78,0,0,1,1.11,3.3v.11a5.23,5.23,0,0,1-.49,2.3,3.72,3.72,0,0,1-1.4,1.59,3.88,3.88,0,0,1-2.1.57,3.7,3.7,0,0,1-2.89-1.24,4.75,4.75,0,0,1-1.11-3.29Zm1.51.18a3.76,3.76,0,0,0,.68,2.34,2.3,2.3,0,0,0,3.23.4,2.16,2.16,0,0,0,.4-.4,4.12,4.12,0,0,0,.67-2.51,3.75,3.75,0,0,0-.69-2.34,2.28,2.28,0,0,0-3.61,0,4.05,4.05,0,0,0-.68,2.53Z" style="fill:#af673f"/><path d="M219.33,129.16v2.13H221v1.16h-1.64v5.45a1.23,1.23,0,0,0,.22.79.91.91,0,0,0,.75.26,3.38,3.38,0,0,0,.71-.1v1.21a4.43,4.43,0,0,1-1.15.16,1.87,1.87,0,0,1-1.52-.61,2.62,2.62,0,0,1-.51-1.73v-5.45h-1.6v-1.16h1.6v-2.13Z" style="fill:#af673f"/><path d="M226.48,135.6a5.15,5.15,0,0,1,1-3.27,3.27,3.27,0,0,1,4.6-.47,3.68,3.68,0,0,1,.4.39l.07-1h1.37v8.57a3.58,3.58,0,0,1-1,2.69,3.76,3.76,0,0,1-2.71,1,4.42,4.42,0,0,1-1.86-.41,3.22,3.22,0,0,1-1.39-1.11l.78-.9a2.93,2.93,0,0,0,2.36,1.19,2.3,2.3,0,0,0,1.71-.62,2.36,2.36,0,0,0,.61-1.74v-.75a3.06,3.06,0,0,1-2.46,1,3,3,0,0,1-2.5-1.24A5.47,5.47,0,0,1,226.48,135.6Zm1.51.17a3.91,3.91,0,0,0,.61,2.33,2,2,0,0,0,1.7.85,2.19,2.19,0,0,0,2.09-1.29v-4a2.22,2.22,0,0,0-2.07-1.26,2,2,0,0,0-1.71.85,4.3,4.3,0,0,0-.61,2.52Z" style="fill:#af673f"/><path d="M239.8,140.23a3.84,3.84,0,0,1-2.91-1.17,4.34,4.34,0,0,1-1.12-3.14v-.28a5.37,5.37,0,0,1,.5-2.33,3.9,3.9,0,0,1,1.4-1.61,3.53,3.53,0,0,1,1.94-.58,3.29,3.29,0,0,1,2.66,1.13,4.85,4.85,0,0,1,.95,3.23v.62h-5.95a3.16,3.16,0,0,0,.76,2.1,2.38,2.38,0,0,0,1.85.8,2.54,2.54,0,0,0,1.35-.32,3.31,3.31,0,0,0,1-.86l.92.71A3.67,3.67,0,0,1,239.8,140.23Zm-.19-7.87a2,2,0,0,0-1.53.66,3.24,3.24,0,0,0-.76,1.85h4.4v-.11a2.85,2.85,0,0,0-.62-1.77,1.89,1.89,0,0,0-1.48-.63Z" style="fill:#af673f"/><path d="M247,129.16v2.13h1.64v1.16H247v5.45a1.23,1.23,0,0,0,.22.79.91.91,0,0,0,.75.26,3.38,3.38,0,0,0,.71-.1v1.21a4.43,4.43,0,0,1-1.15.16,1.87,1.87,0,0,1-1.52-.61,2.62,2.62,0,0,1-.51-1.73v-5.45h-1.6v-1.16h1.6v-2.13Z" style="fill:#af673f"/><path d="M256.54,129.16v2.13h1.64v1.16h-1.64v5.45a1.23,1.23,0,0,0,.22.79.91.91,0,0,0,.75.26,3.38,3.38,0,0,0,.71-.1v1.21a4.43,4.43,0,0,1-1.15.16,1.87,1.87,0,0,1-1.52-.61,2.62,2.62,0,0,1-.51-1.73v-5.45h-1.6v-1.16H255v-2.13Z" style="fill:#af673f"/><path d="M261.44,132.35a3.18,3.18,0,0,1,2.6-1.23c1.85,0,2.79,1,2.81,3.14v5.8h-1.5v-5.81a2,2,0,0,0-.43-1.4,1.75,1.75,0,0,0-1.33-.45,2.15,2.15,0,0,0-1.28.39,2.67,2.67,0,0,0-.86,1v6.26H260V127.6h1.5Z" style="fill:#af673f"/><path d="M272.74,140.23a3.84,3.84,0,0,1-2.91-1.17,4.34,4.34,0,0,1-1.12-3.14v-.28a5.37,5.37,0,0,1,.5-2.33,3.9,3.9,0,0,1,1.4-1.61,3.53,3.53,0,0,1,1.94-.58,3.29,3.29,0,0,1,2.66,1.13,4.85,4.85,0,0,1,1,3.23v.62h-6a3.16,3.16,0,0,0,.76,2.1,2.38,2.38,0,0,0,1.85.8,2.54,2.54,0,0,0,1.35-.32,3.31,3.31,0,0,0,1-.86l.92.71A3.67,3.67,0,0,1,272.74,140.23Zm-.19-7.87A2,2,0,0,0,271,133a3.24,3.24,0,0,0-.76,1.85h4.4v-.11A2.84,2.84,0,0,0,274,133,1.88,1.88,0,0,0,272.55,132.36Z" style="fill:#af673f"/><path d="M289.45,135.77a5.24,5.24,0,0,1-.92,3.23,3,3,0,0,1-2.48,1.22,3.05,3.05,0,0,1-2.57-1.18l-.07,1H282V127.6h1.5v4.65a3.28,3.28,0,0,1,5,.08,5.33,5.33,0,0,1,.91,3.31Zm-1.5-.17a4,4,0,0,0-.59-2.37,2,2,0,0,0-1.7-.84,2.21,2.21,0,0,0-2.13,1.38v3.8a2.26,2.26,0,0,0,2.15,1.38,2,2,0,0,0,1.68-.84,4.32,4.32,0,0,0,.58-2.51Z" style="fill:#af673f"/><path d="M290.94,135.59a5.17,5.17,0,0,1,.51-2.32,3.81,3.81,0,0,1,1.41-1.59,3.86,3.86,0,0,1,2.07-.56,3.72,3.72,0,0,1,2.9,1.24,4.78,4.78,0,0,1,1.11,3.3v.11a5.23,5.23,0,0,1-.49,2.3,3.72,3.72,0,0,1-1.4,1.59,3.88,3.88,0,0,1-2.1.57A3.68,3.68,0,0,1,292,139a4.75,4.75,0,0,1-1.11-3.29Zm1.51.18a3.76,3.76,0,0,0,.68,2.34,2.3,2.3,0,0,0,3.23.4,2.16,2.16,0,0,0,.4-.4,4.12,4.12,0,0,0,.67-2.51,3.75,3.75,0,0,0-.69-2.34,2.28,2.28,0,0,0-3.61,0,4.05,4.05,0,0,0-.68,2.53Z" style="fill:#af673f"/><path d="M300.42,135.59a5.17,5.17,0,0,1,.51-2.32,3.81,3.81,0,0,1,1.41-1.59,3.86,3.86,0,0,1,2.07-.56,3.72,3.72,0,0,1,2.9,1.24,4.78,4.78,0,0,1,1.11,3.3v.11a5.23,5.23,0,0,1-.49,2.3,3.72,3.72,0,0,1-1.4,1.59,3.88,3.88,0,0,1-2.1.57,3.7,3.7,0,0,1-2.89-1.24,4.75,4.75,0,0,1-1.11-3.29Zm1.51.18a3.76,3.76,0,0,0,.68,2.34,2.3,2.3,0,0,0,3.23.4,2.16,2.16,0,0,0,.4-.4,4.12,4.12,0,0,0,.67-2.51,3.75,3.75,0,0,0-.69-2.34,2.28,2.28,0,0,0-3.61,0,4.05,4.05,0,0,0-.68,2.53Z" style="fill:#af673f"/><path d="M312.75,136l-.94,1v3.08h-1.5V127.6h1.5v7.54l.8-1,2.74-2.89h1.83L313.75,135l3.81,5.11H315.8Z" style="fill:#af673f"/><path d="M323.83,137.74a1.09,1.09,0,0,0-.46-1,4.52,4.52,0,0,0-1.6-.58,7.65,7.65,0,0,1-1.81-.58,2.55,2.55,0,0,1-1-.81,1.93,1.93,0,0,1-.32-1.12,2.27,2.27,0,0,1,.91-1.83,3.56,3.56,0,0,1,2.33-.75,3.65,3.65,0,0,1,2.42.77,2.45,2.45,0,0,1,.93,2h-1.51a1.35,1.35,0,0,0-.52-1.06,2.29,2.29,0,0,0-2.6-.09,1.11,1.11,0,0,0-.46.93.9.9,0,0,0,.43.82,5.37,5.37,0,0,0,1.55.53,8.26,8.26,0,0,1,1.82.6,2.62,2.62,0,0,1,1,.84,2.12,2.12,0,0,1,.34,1.2,2.23,2.23,0,0,1-.94,1.89,4,4,0,0,1-2.44.71,4.46,4.46,0,0,1-1.87-.37,3,3,0,0,1-1.27-1,2.5,2.5,0,0,1-.46-1.45h1.5a1.57,1.57,0,0,0,.6,1.2,2.32,2.32,0,0,0,1.6.36,2.36,2.36,0,0,0,1.37-.34A1.05,1.05,0,0,0,323.83,137.74Z" style="fill:#af673f"/><path d="M333.44,129.16v2.13h1.64v1.16h-1.64v5.45a1.23,1.23,0,0,0,.22.79.91.91,0,0,0,.75.26,3.38,3.38,0,0,0,.71-.1v1.21a4.43,4.43,0,0,1-1.15.16,1.87,1.87,0,0,1-1.52-.61,2.62,2.62,0,0,1-.51-1.73v-5.45h-1.6v-1.16h1.6v-2.13Z" style="fill:#af673f"/><path d="M338.34,132.35a3.18,3.18,0,0,1,2.6-1.23c1.85,0,2.79,1,2.81,3.14v5.8h-1.5v-5.81a2,2,0,0,0-.43-1.4,1.75,1.75,0,0,0-1.33-.45,2.15,2.15,0,0,0-1.28.39,2.67,2.67,0,0,0-.86,1v6.26h-1.5V127.6h1.5Z" style="fill:#af673f"/><path d="M351.41,140.07a2.87,2.87,0,0,1-.21-.92,3.35,3.35,0,0,1-2.5,1.09,3.11,3.11,0,0,1-2.13-.73,2.37,2.37,0,0,1-.83-1.86,2.48,2.48,0,0,1,1-2.13,5,5,0,0,1,2.93-.76h1.46v-.69a1.7,1.7,0,0,0-.47-1.25,1.86,1.86,0,0,0-1.39-.47,2.18,2.18,0,0,0-1.35.41,1.19,1.19,0,0,0-.54,1h-1.51a2.11,2.11,0,0,1,.47-1.27,3.18,3.18,0,0,1,1.27-1,4.23,4.23,0,0,1,1.76-.36,3.47,3.47,0,0,1,2.38.76,2.73,2.73,0,0,1,.89,2.09v4a5,5,0,0,0,.31,1.92V140Zm-2.49-1.14a2.65,2.65,0,0,0,1.34-.37,2.22,2.22,0,0,0,.92-.95v-1.8H350q-2.76,0-2.76,1.62a1.37,1.37,0,0,0,.47,1.1,1.81,1.81,0,0,0,1.21.39Z" style="fill:#af673f"/><path d="M357.07,129.16v2.13h1.64v1.16h-1.64v5.45a1.23,1.23,0,0,0,.22.79.91.91,0,0,0,.75.26,3.38,3.38,0,0,0,.71-.1v1.21a4.43,4.43,0,0,1-1.15.16,1.87,1.87,0,0,1-1.52-.61,2.62,2.62,0,0,1-.51-1.73v-5.45H354v-1.16h1.6v-2.13Z" style="fill:#af673f"/><path d="M55,149.1v2.13h1.64v1.16H55v5.45a1.23,1.23,0,0,0,.22.79.91.91,0,0,0,.75.26,3.38,3.38,0,0,0,.71-.1V160a4.43,4.43,0,0,1-1.15.16,1.87,1.87,0,0,1-1.52-.61,2.62,2.62,0,0,1-.51-1.73v-5.45H51.9v-1.16h1.6V149.1Z" style="fill:#af673f"/><path d="M59.91,152.29a3.18,3.18,0,0,1,2.6-1.23c1.85,0,2.79,1.05,2.81,3.14V160h-1.5v-5.8a2,2,0,0,0-.43-1.4,1.75,1.75,0,0,0-1.33-.45,2.15,2.15,0,0,0-1.28.39,2.67,2.67,0,0,0-.86,1V160h-1.5V147.55h1.5Z" style="fill:#af673f"/><path d="M71.21,160.17A3.84,3.84,0,0,1,68.3,159a4.34,4.34,0,0,1-1.12-3.14v-.28a5.37,5.37,0,0,1,.5-2.33,3.9,3.9,0,0,1,1.4-1.61,3.53,3.53,0,0,1,1.94-.58,3.29,3.29,0,0,1,2.66,1.13,4.85,4.85,0,0,1,.95,3.23V156H68.68a3.16,3.16,0,0,0,.76,2.1,2.38,2.38,0,0,0,1.85.8,2.54,2.54,0,0,0,1.35-.32,3.31,3.31,0,0,0,1-.86l.92.71A3.67,3.67,0,0,1,71.21,160.17ZM71,152.3a2,2,0,0,0-1.53.66,3.24,3.24,0,0,0-.76,1.85h4.4v-.11a2.85,2.85,0,0,0-.62-1.77A1.91,1.91,0,0,0,71,152.3Z" style="fill:#af673f"/><path d="M79.13,157.81l2-6.58h1.61l-3.53,10.14c-.55,1.46-1.41,2.19-2.6,2.19h-.28l-.56-.11v-1.22h.41a2,2,0,0,0,1.19-.31,2.24,2.24,0,0,0,.7-1.13l.33-.89-3.13-8.68h1.64Z" style="fill:#af673f"/><path d="M89.66,151.23v1.1a3.22,3.22,0,0,1,2.63-1.27c1.85,0,2.79,1.05,2.81,3.14V160H93.6v-5.8a2,2,0,0,0-.43-1.4,1.75,1.75,0,0,0-1.33-.45,2.15,2.15,0,0,0-1.28.39,2.67,2.67,0,0,0-.86,1V160H88.2v-8.78Z" style="fill:#af673f"/><path d="M101.06,160.17A3.84,3.84,0,0,1,98.15,159,4.33,4.33,0,0,1,97,155.86v-.28a5.37,5.37,0,0,1,.5-2.33,3.9,3.9,0,0,1,1.4-1.61,3.53,3.53,0,0,1,1.94-.58,3.29,3.29,0,0,1,2.66,1.13,4.85,4.85,0,0,1,1,3.23V156H98.53a3.16,3.16,0,0,0,.76,2.1,2.38,2.38,0,0,0,1.85.8,2.54,2.54,0,0,0,1.35-.32,3.31,3.31,0,0,0,1-.86l.92.71A3.67,3.67,0,0,1,101.06,160.17Zm-.19-7.87a2,2,0,0,0-1.53.66,3.24,3.24,0,0,0-.76,1.85H103v-.11a2.85,2.85,0,0,0-.62-1.77A1.89,1.89,0,0,0,100.87,152.3Z" style="fill:#af673f"/><path d="M109.86,160.17A3.84,3.84,0,0,1,107,159a4.34,4.34,0,0,1-1.12-3.14v-.28a5.37,5.37,0,0,1,.5-2.33,3.9,3.9,0,0,1,1.4-1.61,3.53,3.53,0,0,1,1.94-.58,3.29,3.29,0,0,1,2.66,1.13,4.85,4.85,0,0,1,1,3.23V156h-6a3.16,3.16,0,0,0,.76,2.1,2.38,2.38,0,0,0,1.85.8,2.54,2.54,0,0,0,1.35-.32,3.31,3.31,0,0,0,1-.86l.92.71A3.68,3.68,0,0,1,109.86,160.17Zm-.19-7.87a2,2,0,0,0-1.53.66,3.24,3.24,0,0,0-.76,1.85h4.4v-.11a2.85,2.85,0,0,0-.62-1.77A1.91,1.91,0,0,0,109.67,152.3Z" style="fill:#af673f"/><path d="M114.66,155.55a5.12,5.12,0,0,1,1-3.25,3.27,3.27,0,0,1,4.58-.57,4,4,0,0,1,.42.4v-4.58h1.5V160h-1.38l-.07-.94a3.07,3.07,0,0,1-2.51,1.1,3,3,0,0,1-2.49-1.25,5.21,5.21,0,0,1-1-3.26Zm1.5.17a3.86,3.86,0,0,0,.62,2.34,2,2,0,0,0,1.7.84,2.2,2.2,0,0,0,2.09-1.28v-4a2.21,2.21,0,0,0-2.07-1.24,2,2,0,0,0-1.72.85A4.29,4.29,0,0,0,116.16,155.72Z" style="fill:#af673f"/><path d="M128.52,148.9a.88.88,0,0,1,.22-.62.81.81,0,0,1,.66-.25.84.84,0,0,1,.67.25.9.9,0,1,1-1.55.62Zm1.62,11.1h-1.5v-8.78h1.5Z" style="fill:#af673f"/><path d="M134,151.23v1.1a3.22,3.22,0,0,1,2.63-1.27c1.85,0,2.79,1.05,2.81,3.14V160h-1.5v-5.8a2,2,0,0,0-.43-1.4,1.75,1.75,0,0,0-1.33-.45,2.15,2.15,0,0,0-1.28.39,2.67,2.67,0,0,0-.86,1V160h-1.5v-8.78Z" style="fill:#af673f"/><path d="M147.87,149.1v2.13h1.64v1.16h-1.64v5.45a1.23,1.23,0,0,0,.22.79.91.91,0,0,0,.75.26,3.38,3.38,0,0,0,.71-.1V160a4.43,4.43,0,0,1-1.15.16,1.87,1.87,0,0,1-1.52-.61,2.62,2.62,0,0,1-.51-1.73v-5.45h-1.6v-1.16h1.6V149.1Z" style="fill:#af673f"/><path d="M152.76,152.29a3.18,3.18,0,0,1,2.6-1.23c1.85,0,2.79,1.05,2.81,3.14V160h-1.5v-5.8a2,2,0,0,0-.43-1.4,1.75,1.75,0,0,0-1.33-.45,2.15,2.15,0,0,0-1.28.39,2.67,2.67,0,0,0-.86,1V160h-1.5V147.55h1.5Z" style="fill:#af673f"/><path d="M164.06,160.17a3.84,3.84,0,0,1-2.91-1.17,4.34,4.34,0,0,1-1.12-3.14v-.28a5.37,5.37,0,0,1,.5-2.33,3.9,3.9,0,0,1,1.4-1.61,3.53,3.53,0,0,1,1.94-.58,3.29,3.29,0,0,1,2.66,1.13,4.85,4.85,0,0,1,.95,3.23V156h-5.95a3.16,3.16,0,0,0,.76,2.1,2.38,2.38,0,0,0,1.85.8,2.54,2.54,0,0,0,1.35-.32,3.31,3.31,0,0,0,1-.86l.92.71A3.67,3.67,0,0,1,164.06,160.17Zm-.19-7.87a2,2,0,0,0-1.53.66,3.24,3.24,0,0,0-.76,1.85H166v-.11a2.85,2.85,0,0,0-.62-1.77A1.89,1.89,0,0,0,163.87,152.3Z" style="fill:#af673f"/><path d="M169.23,148.9a.88.88,0,0,1,.22-.62.81.81,0,0,1,.66-.25.84.84,0,0,1,.67.25.9.9,0,1,1-1.55.62Zm1.62,11.1h-1.5v-8.78h1.5Z" style="fill:#af673f"/><path d="M177.5,152.58a4.52,4.52,0,0,0-.74-.06,2,2,0,0,0-2,1.26V160h-1.5v-8.78h1.46v1a2.34,2.34,0,0,1,2.09-1.18,1.53,1.53,0,0,1,.67.11Z" style="fill:#af673f"/><path d="M184.49,152.29a3.18,3.18,0,0,1,2.6-1.23c1.85,0,2.79,1.05,2.81,3.14V160h-1.5v-5.8a2,2,0,0,0-.43-1.4,1.75,1.75,0,0,0-1.33-.45,2.15,2.15,0,0,0-1.28.39,2.67,2.67,0,0,0-.86,1V160H183V147.55h1.5Z" style="fill:#af673f"/><path d="M191.75,155.54a5.17,5.17,0,0,1,.51-2.32,3.81,3.81,0,0,1,1.41-1.59,3.86,3.86,0,0,1,2.07-.56,3.72,3.72,0,0,1,2.9,1.24,4.78,4.78,0,0,1,1.11,3.3v.11a5.23,5.23,0,0,1-.49,2.3,3.72,3.72,0,0,1-1.4,1.59,3.88,3.88,0,0,1-2.1.57,3.7,3.7,0,0,1-2.89-1.24,4.75,4.75,0,0,1-1.11-3.29Zm1.51.18a3.76,3.76,0,0,0,.68,2.34,2.3,2.3,0,0,0,3.23.4,2.16,2.16,0,0,0,.4-.4,4.12,4.12,0,0,0,.67-2.51,3.75,3.75,0,0,0-.69-2.34,2.28,2.28,0,0,0-3.61,0,4.05,4.05,0,0,0-.68,2.53Z" style="fill:#af673f"/><path d="M203,151.23v1a3.26,3.26,0,0,1,2.61-1.14,2.52,2.52,0,0,1,2.51,1.41,3.32,3.32,0,0,1,1.14-1,3.41,3.41,0,0,1,1.66-.39q2.9,0,2.94,3.06V160h-1.5v-5.79a2,2,0,0,0-.43-1.41,1.92,1.92,0,0,0-1.45-.47,1.95,1.95,0,0,0-2,1.84V160H207v-5.75a1.66,1.66,0,0,0-1.38-1.91,1.61,1.61,0,0,0-.49,0,2,2,0,0,0-2,1.26V160h-1.5v-8.78Z" style="fill:#af673f"/><path d="M219.84,160.17a3.84,3.84,0,0,1-2.91-1.17,4.34,4.34,0,0,1-1.12-3.14v-.28a5.37,5.37,0,0,1,.5-2.33,3.9,3.9,0,0,1,1.4-1.61,3.53,3.53,0,0,1,1.94-.58,3.29,3.29,0,0,1,2.66,1.13,4.85,4.85,0,0,1,.95,3.23V156h-5.95a3.16,3.16,0,0,0,.76,2.1,2.38,2.38,0,0,0,1.85.8,2.54,2.54,0,0,0,1.35-.32,3.31,3.31,0,0,0,1-.86l.92.71A3.67,3.67,0,0,1,219.84,160.17Zm-.19-7.87a2,2,0,0,0-1.53.66,3.24,3.24,0,0,0-.76,1.85h4.4v-.11a2.85,2.85,0,0,0-.62-1.77A1.91,1.91,0,0,0,219.65,152.3Z" style="fill:#af673f"/><path d="M230.11,157.68a1.09,1.09,0,0,0-.46-1,4.52,4.52,0,0,0-1.6-.58,7.65,7.65,0,0,1-1.81-.58,2.55,2.55,0,0,1-1-.81,1.93,1.93,0,0,1-.32-1.12,2.27,2.27,0,0,1,.91-1.83,3.56,3.56,0,0,1,2.33-.75,3.65,3.65,0,0,1,2.42.77,2.45,2.45,0,0,1,.93,2H230a1.35,1.35,0,0,0-.52-1.06,2.29,2.29,0,0,0-2.6-.09,1.11,1.11,0,0,0-.46.93.9.9,0,0,0,.43.82,5.37,5.37,0,0,0,1.55.53,8.26,8.26,0,0,1,1.82.6,2.62,2.62,0,0,1,1,.84,2.12,2.12,0,0,1,.34,1.2,2.23,2.23,0,0,1-.94,1.89,4,4,0,0,1-2.44.71,4.46,4.46,0,0,1-1.87-.37,3,3,0,0,1-1.27-1,2.5,2.5,0,0,1-.46-1.45h1.5a1.57,1.57,0,0,0,.6,1.2,2.83,2.83,0,0,0,2.86.1A1.06,1.06,0,0,0,230.11,157.68Z" style="fill:#af673f"/><path d="M233.6,159.22a.91.91,0,0,1,.23-.65.88.88,0,0,1,.69-.26.86.86,0,0,1,.94.91.87.87,0,0,1-.24.63.91.91,0,0,1-.7.25.83.83,0,0,1-.92-.73Z" style="fill:#af673f"/><path d="M236.77,151.52l-.85-.58a4,4,0,0,0,.78-2.22v-1.17h1.49v1a4,4,0,0,1-1.41,2.92Zm2.49,0-.85-.58a4,4,0,0,0,.78-2.22v-1.17h1.49v1a4,4,0,0,1-1.41,2.92Z" style="fill:#af673f"/><path d="M64.61,44.39a11,11,0,0,1-.9,4.6,6.84,6.84,0,0,1-2.59,3,7.59,7.59,0,0,1-7.74,0,6.9,6.9,0,0,1-2.62-3,10.61,10.61,0,0,1-.94-4.52v-1a10.92,10.92,0,0,1,.92-4.6,7,7,0,0,1,2.61-3.06,7.61,7.61,0,0,1,7.73,0,6.86,6.86,0,0,1,2.6,3,10.61,10.61,0,0,1,.93,4.58Zm-3.09-.93a7.8,7.8,0,0,0-1.13-4.55,3.95,3.95,0,0,0-6.32,0,7.63,7.63,0,0,0-1.15,4.45v1a7.75,7.75,0,0,0,1.14,4.54,3.71,3.71,0,0,0,3.18,1.61A3.67,3.67,0,0,0,60.41,49a7.9,7.9,0,0,0,1.11-4.58Z" style="fill:#af673f"/><path d="M87.59,35V52.84H84.5v-7a16.53,16.53,0,0,1-4.14.51,7.21,7.21,0,0,1-4.83-1.41,5.33,5.33,0,0,1-1.66-4.26V35H77v5.68a3.26,3.26,0,0,0,.78,2.42,3.77,3.77,0,0,0,2.62.73,16.31,16.31,0,0,0,4.14-.52V35Z" style="fill:#af673f"/><path d="M101.72,44.88H94.4v5.48H103v2.48H91.3V35h11.57v2.5H94.4v4.92h7.32Zm-8.9-12.65a1.43,1.43,0,0,1,.41-1,1.5,1.5,0,0,1,1.13-.42,1.54,1.54,0,0,1,1.14.42,1.47,1.47,0,0,1,0,2.06,1.58,1.58,0,0,1-1.14.41,1.54,1.54,0,0,1-1.13-.41A1.43,1.43,0,0,1,92.82,32.23Zm5.6,0a1.39,1.39,0,0,1,.41-1,1.5,1.5,0,0,1,1.13-.42,1.54,1.54,0,0,1,1.14.42,1.5,1.5,0,0,1,0,2.06,1.53,1.53,0,0,1-1.14.41,1.5,1.5,0,0,1-1.13-.41A1.39,1.39,0,0,1,98.42,32.24Z" style="fill:#af673f"/><path d="M109.5,35l5.14,13.66L119.77,35h4V52.84h-3.09V47L121,39.1l-5.27,13.74h-2.21l-5.26-13.73.31,7.85v5.88h-3.09V35Z" style="fill:#af673f"/><path d="M145.09,37.51h-8.23V52.84h-3.09V35h11.32Z" style="fill:#af673f"/><path d="M161.07,44.39a11,11,0,0,1-.9,4.6,6.84,6.84,0,0,1-2.59,3,7.59,7.59,0,0,1-7.74,0,7,7,0,0,1-2.63-3,10.76,10.76,0,0,1-.93-4.52v-1a10.92,10.92,0,0,1,.92-4.6,7,7,0,0,1,2.61-3.06,7.61,7.61,0,0,1,7.73,0,6.86,6.86,0,0,1,2.6,3,10.91,10.91,0,0,1,.93,4.58Zm-3.1-.93a7.8,7.8,0,0,0-1.12-4.55,3.95,3.95,0,0,0-6.32,0,7.63,7.63,0,0,0-1.15,4.45v1a7.75,7.75,0,0,0,1.14,4.54,4,4,0,0,0,6.35,0,8,8,0,0,0,1.1-4.58Z" style="fill:#af673f"/><path d="M164.16,52.84V35h6.11a7.47,7.47,0,0,1,4.61,1.21,4.28,4.28,0,0,1,1.58,3.61,3.89,3.89,0,0,1-.67,2.21,4.26,4.26,0,0,1-1.93,1.52A3.91,3.91,0,0,1,176.09,45a4.27,4.27,0,0,1,.79,2.6,4.73,4.73,0,0,1-1.61,3.86,7,7,0,0,1-4.61,1.35Zm3.1-10.33h3a3.48,3.48,0,0,0,2.26-.65,2.24,2.24,0,0,0,.82-1.86,2.29,2.29,0,0,0-.75-1.91,3.85,3.85,0,0,0-2.35-.58h-3Zm0,2.28v5.57h3.44a3.35,3.35,0,0,0,2.28-.72,2.56,2.56,0,0,0,.82-2c0-1.85-1-2.8-2.84-2.84Z" style="fill:#af673f"/><path d="M194.21,44.39a11,11,0,0,1-.9,4.6,6.84,6.84,0,0,1-2.59,3A7.59,7.59,0,0,1,183,52a6.9,6.9,0,0,1-2.62-3,10.61,10.61,0,0,1-.94-4.52v-1a10.92,10.92,0,0,1,.92-4.6A7,7,0,0,1,183,35.82a7.61,7.61,0,0,1,7.73,0,6.86,6.86,0,0,1,2.6,3,10.61,10.61,0,0,1,.93,4.58Zm-3.1-.93A7.8,7.8,0,0,0,190,38.91a3.95,3.95,0,0,0-6.32,0,7.63,7.63,0,0,0-1.15,4.45v1a7.75,7.75,0,0,0,1.14,4.54A4,4,0,0,0,190,49a7.9,7.9,0,0,0,1.1-4.58Z" style="fill:#af673f"/><path d="M200.4,46.23v6.61h-3.1V35h6.82a7,7,0,0,1,4.75,1.55,5.26,5.26,0,0,1,1.76,4.12,5.08,5.08,0,0,1-1.73,4.09,7.23,7.23,0,0,1-4.82,1.46Zm0-2.5h3.72a3.66,3.66,0,0,0,2.52-.78,2.87,2.87,0,0,0,.87-2.25,3.09,3.09,0,0,0-.88-2.31,3.38,3.38,0,0,0-2.42-.88H200.4Z" style="fill:#af673f"/><path d="M222.13,52.84V46.18h-3.46l-3.44,6.66h-3.32l4-7.58a5,5,0,0,1-3.11-4.82,4.94,4.94,0,0,1,1.68-4,7.13,7.13,0,0,1,4.7-1.45h6.06V52.84Zm-6.26-12.26a3.19,3.19,0,0,0,.84,2.35,3.48,3.48,0,0,0,2.54.85h2.88V37.51h-2.88a3.47,3.47,0,0,0-2.55.82A3,3,0,0,0,215.87,40.58Z" style="fill:#af673f"/><path d="M241.52,37.51H236V52.84h-3.07V37.51h-5.51V35h14.14Z" style="fill:#af673f"/><path d="M263.4,35V52.84h-3.09V37.51h-5.46l-.32,6.89a19.41,19.41,0,0,1-.79,5A5.08,5.08,0,0,1,252,52a5.16,5.16,0,0,1-3.08.82h-.79V50.36l.49,0a2.46,2.46,0,0,0,1.65-.75,4.36,4.36,0,0,0,.88-2,23.78,23.78,0,0,0,.42-3.88L251.9,35Z" style="fill:#af673f"/><path d="M287.34,44.39a10.85,10.85,0,0,1-.91,4.6,6.72,6.72,0,0,1-2.59,3A7.07,7.07,0,0,1,280,53.08a7.17,7.17,0,0,1-3.66-.93,6.86,6.86,0,0,1-2.59-2.67,9.88,9.88,0,0,1-1.14-4h-2.23v7.41h-3.08V35h3.08v8h2.2a10.4,10.4,0,0,1,1-4.36,7,7,0,0,1,2.61-2.9,7.6,7.6,0,0,1,7.64,0,6.86,6.86,0,0,1,2.6,3,10.91,10.91,0,0,1,.93,4.58Zm-3.1-.93a7.8,7.8,0,0,0-1.12-4.55,3.95,3.95,0,0,0-6.32,0,7.63,7.63,0,0,0-1.15,4.45v1a7.75,7.75,0,0,0,1.14,4.54A3.68,3.68,0,0,0,280,50.54,3.64,3.64,0,0,0,283.13,49a7.9,7.9,0,0,0,1.11-4.58Z" style="fill:#af673f"/><path d="M306.12,57.22h-2.94V52.84H291.43v4.38h-3l-.09-6.86h1.43a7.05,7.05,0,0,0,1.7-3,18.56,18.56,0,0,0,.82-4.45l.47-7.91H304V50.36h2.27Zm-12.84-6.86h7.64V37.51h-5.2l-.3,5A16.25,16.25,0,0,1,293.28,50.36Z" style="fill:#af673f"/><path d="M319.53,35h3.1V52.84h-3.1V40.14l-7.83,12.7h-3.1V35h3.1V47.72Z" style="fill:#af673f"/></svg>