<svg id="Слой_3" data-name="Слой 3" xmlns="http://www.w3.org/2000/svg" viewBox="0 0 200 33"><title>cap-banner3</title><path d="M46,12.81A15.35,15.35,0,0,0,43.32,17a18.62,18.62,0,0,0-1,4.4l-.12,1.18H40.73l.12-1.18a16,16,0,0,1,1.22-4.6,17.78,17.78,0,0,1,2.48-4H40l-.11,1.25H38.62V11.65H46Z" style="fill:#9b9b9a"/><path d="M53.33,18.88h1.5V20h-1.5V21.4l1.22.21v.94H50.65v-.94l1.22-.21V20H47v-.83l4.81-7.55h1.56Zm-4.79,0h3.32V13.76l0,0-.15.4Z" style="fill:#9b9b9a"/><path d="M56.29,21.61,58,21.4V13.23l-1.71,0v-.92l3.19-.69V21.4l1.68.21v.94H56.29Z" style="fill:#9b9b9a"/><path d="M62.43,22.55v-1l3.57-4a10,10,0,0,0,1.3-1.7,2.67,2.67,0,0,0,.34-1.29,2,2,0,0,0-.48-1.37,1.59,1.59,0,0,0-1.27-.56,2.16,2.16,0,0,0-1.66.58,2.32,2.32,0,0,0-.53,1.63H62.29l0,0a3.07,3.07,0,0,1,.93-2.37,3.66,3.66,0,0,1,2.69-1,3.2,3.2,0,0,1,2.35.86,2.93,2.93,0,0,1,.87,2.18,3.47,3.47,0,0,1-.53,1.78,11.58,11.58,0,0,1-1.49,1.92l-2.87,3.12v0h3.87l.12-1.25h1.25v2.4Z" style="fill:#9b9b9a"/><path d="M16.57,10.06a4.48,4.48,0,0,1,2.09,3.33,3.62,3.62,0,1,0-2.09-3.33ZM14.2,17.47a3.62,3.62,0,1,0-3.62-3.62A3.62,3.62,0,0,0,14.2,17.47Zm1.53.25H12.67A4.64,4.64,0,0,0,8,22.35v3.81l.26.08a21.09,21.09,0,0,0,6.3,1,12.93,12.93,0,0,0,5.5-1l.24-.12h0V22.35A4.64,4.64,0,0,0,15.74,17.72Zm6-3.74h-3a4.46,4.46,0,0,1-1.38,3.11,5.5,5.5,0,0,1,3.93,5.27v1.16a12.47,12.47,0,0,0,4.86-1l.24-.12h0V18.62A4.64,4.64,0,0,0,21.72,14ZM7.85,13.74a3.59,3.59,0,0,0,1.92-.56,4.48,4.48,0,0,1,1.68-2.86c0-.07,0-.13,0-.2a3.62,3.62,0,1,0-3.62,3.62Zm3.25,3.35A4.46,4.46,0,0,1,9.73,14l-.34,0H6.32a4.64,4.64,0,0,0-4.63,4.63v3.81l.26.08a21.72,21.72,0,0,0,5.22,1V22.36A5.51,5.51,0,0,1,11.1,17.09Z" style="fill:#9b9b9a"/></svg>