<svg id="Layer_1" data-name="Layer 1" xmlns="http://www.w3.org/2000/svg" viewBox="0 0 500 500"><defs><style>.cls-1{fill:#d38641;opacity:0.5;}</style></defs><title>cap-tie</title><path class="cls-1" d="M399.58,201.23H328.85c2.47-7.24,5-14.47,7.7-21.67.46-1.21,1.79-4.36,3.61-8.62h48.71Q394.36,186,399.58,201.23Zm-19.92-55.06c-9.43-1.2-18.94-.88-28.42-1.2-1.85,4.41-3.72,8.82-5.51,13H384C382.57,154,381.17,150.09,379.66,146.17Zm-41,314.65h52.65c10.54-10.36,21.54-20.27,32.47-30.28H305.94C317.23,440.12,328.25,450.2,338.68,460.82Zm-61.46-98.39c-2,3.9-4.77,7.8-7.1,11.86h188c-3.69-10.92-10-22.2-12.66-30.28H284.78A141,141,0,0,1,277.22,362.43Zm24.9-74.67H427.76l-4.53-14.39c-1.67-5.3-3.39-10.6-5.08-15.89H311.07C308.07,267.56,305.11,277.66,302.12,287.76ZM364,489.32l.47.61c0,.18,0,.34,0,.5l.17-.22a1.84,1.84,0,0,1,.17.22c0-.16,0-.32,0-.5s.3-.41.46-.61c4.26-5.36,8.74-10.51,13.36-15.5H350.83C355.37,478.89,359.79,484,364,489.32ZM266.2,390.4c2.18,11.48,14.21,20,23.76,27.16H439.23c7.33-5.8,14.74-11.91,19.18-19.09a19.14,19.14,0,0,0,2.46-11.19H266A16.7,16.7,0,0,0,266.2,390.4ZM289,331H441.38q-4.78-15.13-9.53-30.28H298.26C295.26,310.84,292.21,320.94,289,331Zm26-86.53h99q-4.89-15.18-10-30.29H324.51C321.21,224.28,318.06,234.38,315,244.5ZM451.63,25.94c1-4.19-2.87-8-6.68-8.58-1-.16-2-.27-3-.42L318.3,136.13c6.55,5,14.2,7.18,22.43,8.13l.51,0L447.93,41.44C449.21,36.22,450.46,31,451.63,25.94ZM321.85,12.51l-40.4,38.94c2.07,7.91,4.3,15.88,6.76,23.77L354.82,11C343.8,11.18,332.78,11.62,321.85,12.51ZM380,146.2a7.17,7.17,0,0,0,6.08-1.94c13.57-1.57,25.6-6.36,33.65-21.83a274.49,274.49,0,0,0,16.48-39.9L371,145.45C374,145.59,377,145.8,380,146.2Zm5.41-134.88L296,97.53q4.26,11,9.35,21.28L414.6,13.47C404.93,12.51,395.2,11.74,385.43,11.32Zm-103.53,6c-3.81.63-7.63,4.39-6.67,8.58.11.46.22.92.32,1.38l11-10.62C285,16.94,283.45,17.11,281.9,17.36Z"/></svg>