<svg id="Слой_1" data-name="Слой 1" xmlns="http://www.w3.org/2000/svg" viewBox="0 0 200 200"><title>cap-menu-cart</title><path d="M39,143.76c-7.34,2.37-12.31,10.77-10.18,18.23,1.78,7.69,10.06,13.13,17.75,11.48,8.28-1.42,14.32-10.41,12.19-18.58C57.05,146.36,47.12,140.57,39,143.76Z" style="fill:#999"/><path d="M116.93,143.29c-6,1.31-11.24,6.51-11.95,12.78-1.66,8.88,6.27,17.75,15.14,17.63,8.52.24,16-7.69,15.38-16.22C135.27,148.5,125.81,140.92,116.93,143.29Z" style="fill:#999"/><polygon points="143.77 135.88 18.58 135.88 18.58 125.88 136.29 125.88 165.3 27 196.99 27 196.99 37 172.79 37 143.77 135.88" style="fill:#999"/><path d="M3.48,37.84l22.61,80.72H128.21l22.61-80.72Zm115.67,70.56h-84L16.56,48H137.74Z" style="fill:#999"/><rect x="8" y="73" width="76" height="10" transform="translate(113.05 17.14) rotate(78.3)" style="fill:#999"/><rect x="70" y="73" width="76" height="10" transform="translate(206.28 -11.94) rotate(101.7)" style="fill:#999"/><rect x="39" y="73" width="76" height="10" transform="translate(155 1) rotate(90)" style="fill:#999"/></svg>