<svg id="Слой_2" data-name="Слой 2" xmlns="http://www.w3.org/2000/svg" viewBox="0 0 200 33"><title>cap-banner2</title><path d="M43.2,13v.9L42,14.1v4.35h0L45.48,13H48v.9l-1.16.2v5.5l1.16.2v.9H44.32v-.9l1.16-.2V15.24h0L42,20.69H39.49v-.9l1.16-.2V14.1l-1.16-.2V13H43.2Z" style="fill:#9b9b9a"/><path d="M49.42,13.9V13h3.72v.9L52,14.1v2.23h3.42V14.1l-1.16-.2V13H58v.9l-1.16.2v5.5l1.16.2v.9H54.25v-.9l1.16-.2V17.42H52V19.6l1.16.2v.9H49.42v-.9l1.16-.2V14.1Z" style="fill:#9b9b9a"/><path d="M66.5,13v2.29h-1.2l-.11-1.2H63.54V19.6l1.16.2v.9H61v-.9l1.16-.2V14.08H60.51l-.11,1.2H59.21V13Z" style="fill:#9b9b9a"/><path d="M70.67,20.84a3.25,3.25,0,0,1-2.56-1.07,4,4,0,0,1-1-2.78v-.31a4,4,0,0,1,1-2.74,3,3,0,0,1,2.32-1.09,2.92,2.92,0,0,1,2.35.94,3.73,3.73,0,0,1,.8,2.5v.88h-5l0,0A3,3,0,0,0,69.16,19a1.79,1.79,0,0,0,1.52.71,3.51,3.51,0,0,0,1.25-.2,2.88,2.88,0,0,0,.93-.56l.55.91a3.36,3.36,0,0,1-1.09.67A4.39,4.39,0,0,1,70.67,20.84ZM70.46,14a1.52,1.52,0,0,0-1.2.59A2.81,2.81,0,0,0,68.65,16v0h3.55v-.19a2.15,2.15,0,0,0-.44-1.38A1.57,1.57,0,0,0,70.46,14Z" style="fill:#9b9b9a"/><path d="M74.82,22.75l1.16-.2V14.1l-1.16-.2V13h2.36l.13.94a2.59,2.59,0,0,1,.94-.8,2.81,2.81,0,0,1,1.28-.28A2.56,2.56,0,0,1,81.75,14a5.14,5.14,0,0,1,.79,3v.15a4.24,4.24,0,0,1-.8,2.69,2.63,2.63,0,0,1-2.2,1,3,3,0,0,1-1.25-.24,2.41,2.41,0,0,1-.91-.71v2.65l1.16.2v.9H74.82ZM81.13,17a4.08,4.08,0,0,0-.51-2.16A1.67,1.67,0,0,0,79.1,14a1.88,1.88,0,0,0-1,.27,2,2,0,0,0-.69.74v3.75a1.94,1.94,0,0,0,.69.74,2,2,0,0,0,1,.26A1.73,1.73,0,0,0,80.62,19a3.2,3.2,0,0,0,.51-1.89Z" style="fill:#9b9b9a"/><path d="M87.33,20.84a3.25,3.25,0,0,1-2.56-1.07,4,4,0,0,1-1-2.78v-.31a4,4,0,0,1,1-2.74,3,3,0,0,1,2.32-1.09,2.92,2.92,0,0,1,2.35.94,3.73,3.73,0,0,1,.8,2.5v.88h-5l0,0A3,3,0,0,0,85.81,19a1.79,1.79,0,0,0,1.52.71,3.51,3.51,0,0,0,1.25-.2,2.88,2.88,0,0,0,.93-.56l.55.91a3.36,3.36,0,0,1-1.09.67A4.39,4.39,0,0,1,87.33,20.84ZM87.12,14a1.52,1.52,0,0,0-1.2.59A2.81,2.81,0,0,0,85.3,16v0h3.55v-.19a2.15,2.15,0,0,0-.44-1.38A1.57,1.57,0,0,0,87.12,14Z" style="fill:#9b9b9a"/><path d="M95.1,19.75a1.89,1.89,0,0,0,1.23-.43,1.31,1.31,0,0,0,.53-1.06h1.26v0a2.16,2.16,0,0,1-.89,1.77,3.24,3.24,0,0,1-2.15.77,3.11,3.11,0,0,1-2.56-1.1A4.24,4.24,0,0,1,91.65,17v-.3A4.22,4.22,0,0,1,92.54,14a3.1,3.1,0,0,1,2.56-1.1,4.29,4.29,0,0,1,1.66.31A3.34,3.34,0,0,1,98,14L98,15.7H96.93l-.31-1.21A1.86,1.86,0,0,0,96,14.1,2.46,2.46,0,0,0,95.1,14a1.69,1.69,0,0,0-1.58.79,3.74,3.74,0,0,0-.47,1.95V17a3.78,3.78,0,0,0,.47,2A1.69,1.69,0,0,0,95.1,19.75Z" style="fill:#9b9b9a"/><path d="M99.56,13.9V13h3.72v.9l-1.16.2v2.23h3.42V14.1l-1.16-.2V13h3.73v.9l-1.16.2v5.5l1.16.2v.9h-3.73v-.9l1.16-.2V17.42h-3.42V19.6l1.16.2v.9H99.56v-.9l1.16-.2V14.1Z" style="fill:#9b9b9a"/><path d="M112,13v2.65H114a3,3,0,0,1,2.13.69,2.33,2.33,0,0,1,.76,1.8,2.41,2.41,0,0,1-.76,1.83,3,3,0,0,1-2.12.72h-4.47v-.9l1.16-.2V14.1l-1.16-.2V13H112Zm1.16,0v.9l-1.16.2V13ZM112,16.74V19.6H114a1.43,1.43,0,0,0,1.12-.4,1.45,1.45,0,0,0,.36-1,1.54,1.54,0,0,0-.36-1,1.37,1.37,0,0,0-1.12-.43Zm5,3.06,1.16-.2V14.1L117,13.9V13h2.56v6.6l1.16.2v.9H117Z" style="fill:#9b9b9a"/><path d="M125.26,20.84a3.25,3.25,0,0,1-2.56-1.07,4,4,0,0,1-.95-2.78v-.31a4,4,0,0,1,1-2.74A3,3,0,0,1,125,12.85a2.92,2.92,0,0,1,2.35.94,3.73,3.73,0,0,1,.8,2.5v.88h-5l0,0a3,3,0,0,0,.56,1.83,1.79,1.79,0,0,0,1.51.71,3.52,3.52,0,0,0,1.25-.2,2.88,2.88,0,0,0,.93-.56l.55.91a3.37,3.37,0,0,1-1.09.67A4.38,4.38,0,0,1,125.26,20.84ZM125,14a1.52,1.52,0,0,0-1.2.59,2.82,2.82,0,0,0-.61,1.49v0h3.55v-.19a2.15,2.15,0,0,0-.44-1.38A1.57,1.57,0,0,0,125,14Z" style="fill:#9b9b9a"/><path d="M133.26,13.9V13H137v.9l-1.16.2v2.15h.74l1.61-2.16a4.21,4.21,0,0,1,.85-.92,1.52,1.52,0,0,1,.94-.31,1.54,1.54,0,0,1,.54.08,2.78,2.78,0,0,1,.48.25l-.2,1-.35-.06h-.19a.85.85,0,0,0-.52.19,2.21,2.21,0,0,0-.44.46l-1.49,1.93,2.43,3,1,.18v.9h-1.87l-2.6-3.27h-.91V19.6l1.16.2v.9h-3.72v-.9l1.16-.2V14.1Z" style="fill:#9b9b9a"/><path d="M142.25,13.9V13H146v.9l-1.16.2v2.23h3.42V14.1l-1.16-.2V13h3.73v.9l-1.16.2v5.5l1.16.2v.9h-3.73v-.9l1.16-.2V17.42h-3.42V19.6l1.16.2v.9h-3.72v-.9l1.16-.2V14.1Z" style="fill:#9b9b9a"/><path d="M155.89,13v.9l-1.16.2v4.35h0L158.17,13h2.56v.9l-1.16.2v5.5l1.16.2v.9H157v-.9l1.16-.2V15.24h0l-3.39,5.46h-2.55v-.9l1.16-.2V14.1l-1.16-.2V13h3.71Z" style="fill:#9b9b9a"/><path d="M163.09,14.1l-1.16-.2V13h6.28v2h-.91l-.1-.87h-2.71V19.6l1.16.2v.9h-3.72v-.9l1.16-.2Z" style="fill:#9b9b9a"/><path d="M173.47,13v.9l-1.16.2v4.35h0L175.75,13h2.56v.9l-1.16.2v5.5l1.16.2v.9h-3.72v-.9l1.16-.2V15.24h0l-3.39,5.46h-2.55v-.9l1.16-.2V14.1l-1.16-.2V13h3.71Z" style="fill:#9b9b9a"/><rect y="6.5" width="5.23" height="20" style="fill:#d76b6c"/><rect x="9.9" y="6.5" width="5.23" height="20" style="fill:#7285c1"/><rect x="19.8" y="6.5" width="5.23" height="20" style="fill:#74b170"/><rect x="29.41" y="6.5" width="5.23" height="20" style="fill:#9b9b9a"/></svg>