<svg id="Слой_1" data-name="Слой 1" xmlns="http://www.w3.org/2000/svg" viewBox="0 0 200 33"><defs><style>.cls-1{fill:#d38641;}.cls-2{fill:#dd9f66;}</style></defs><title>cap-banner1</title><path class="cls-1" d="M15.23,8.5l4.49,4.33-5.45,5.8,5.47,5.8-5.77,4L7.91,21.49,8,28l-6.73.49L.24,8.32,8,8,8,18Z"/><path class="cls-1" d="M21.35,8.85l6.22-.37v6.89l4.57-.08V8.42l7.1-.4-.93,19.21-6.17.69V20.63l-4.57.11V28l-5.4.54Z"/><path class="cls-1" d="M58,8.37l1.71,17.84-6.12,1.45-.45-9.73L47.9,28.49l-7.13-1.85L41.17,9h6.11l-.9,8.9,5.26-9.35L58,8Z"/><path class="cls-1" d="M71.14,8.26,75,8.16l.16,5.61L80,7.7l5.85,3.18-7.18,7.43,5.5,6.3-4.81,3.58-4.27-6.3-.14,5.95-3.5.11-.13-5.74-3.87,5.05-6.15-3.18,6.28-6.65-5-7.14,5.13-1.92,3.74,5.72Z"/><path class="cls-1" d="M86.79,8.85,93,8.48v6.89l4.57-.08V8.42l7.1-.4-.93,19.21-6.17.69V20.63L93,20.74V28l-5.4.54Z"/><path class="cls-1" d="M112.65,14.89a14.2,14.2,0,0,1,6,2.48,5,5,0,0,1,1.12,1.05,4.31,4.31,0,0,1,.62,1.13,4.84,4.84,0,0,1,.25,1.3c0,.46,0,1,0,1.52v1.08a5.75,5.75,0,0,1-.09,1,3.17,3.17,0,0,1-.34.92,2.14,2.14,0,0,1-.72.75,13.58,13.58,0,0,1-4.49,1.92c-.87.22-1.74.39-2.6.53a25.45,25.45,0,0,1-2.63.25c-.89.05-1.68.08-2.37.08s-1.27,0-1.75-.05L107.1,9.17l5.79-.69-.24,6.44ZM111.56,24a5.3,5.3,0,0,0,3.23-.64,1.8,1.8,0,0,0,.85-1.65,2.39,2.39,0,0,0-.32-.94,3.77,3.77,0,0,0-.8-1,6.11,6.11,0,0,0-2.62-1.36ZM122,28.54l6.78-.24.38-19.72-7.67-.53Z"/><path class="cls-1" d="M147.3,8.37,149,26.21l-6.12,1.45-.45-9.73-5.26,10.56L130,26.64,130.44,9h6.12l-.91,8.9,5.27-9.35L147.3,8ZM136,2.33l8.87-.26-.54,3.42-8.33.8Z"/><path class="cls-2" d="M158.85,31h-2.57V28.36h2.57Z"/><path class="cls-2" d="M170.08,12a7.3,7.3,0,0,1,4.76,1.37,4.79,4.79,0,0,1,1.66,3.91,4.1,4.1,0,0,1-.77,2.45,5.08,5.08,0,0,1-2.2,1.69,3.87,3.87,0,0,1,2.23,1.65,5.42,5.42,0,0,1,.69,2.83v1.53a2.85,2.85,0,0,0,.22,1.29,1,1,0,0,0,.73.5l.63.07V31h-1.39A2.28,2.28,0,0,1,174.51,30a4.8,4.8,0,0,1-.63-2.53V26a3.43,3.43,0,0,0-.9-2.49,3.19,3.19,0,0,0-2.42-.94h-4.12V29l2.13.36V31h-6.82V29.35l2.12-.36V14l-2.12-.37V12h8.33Zm-3.64,8.48h3.38a4.81,4.81,0,0,0,3.13-.83,2.94,2.94,0,0,0,1-2.4A3.06,3.06,0,0,0,173,14.9a4.18,4.18,0,0,0-2.91-.87h-3.64Z"/><path class="cls-2" d="M186.5,12v1.66l-2.12.37V24.88a4.24,4.24,0,0,0,1.22,3.27,4.65,4.65,0,0,0,3.24,1.11,5,5,0,0,0,3.4-1.11,4.08,4.08,0,0,0,1.3-3.27V14l-2.13-.37V12h6.82v1.66L196.1,14V24.88a5.78,5.78,0,0,1-2,4.74,8,8,0,0,1-5.25,1.65,7.6,7.6,0,0,1-5.09-1.65,5.89,5.89,0,0,1-1.94-4.74V14l-2.13-.37V12h6.82Z"/></svg>