<svg id="Layer_1" data-name="Layer 1" xmlns="http://www.w3.org/2000/svg" viewBox="0 0 500 500"><defs><style>.cls-1{fill:#9b9b9a;}</style></defs><title>cap-phone</title><path class="cls-1" d="M378.62,330.28c-16.16-16-36.34-16-52.4,0-12.25,12.15-24.51,24.3-36.55,36.65-3.3,3.4-6.07,4.12-10.09,1.85-7.93-4.32-16.37-7.82-24-12.56-35.52-22.34-65.27-51.06-91.62-83.39-13.08-16.06-24.71-33.25-32.84-52.6-1.65-3.92-1.34-6.49,1.85-9.68,12.25-11.84,24.19-24,36.24-36.14,16.78-16.88,16.78-36.65-.11-53.63C159.54,111.1,150,101.63,140.39,92c-9.88-9.88-19.66-19.87-29.65-29.65-16.16-15.75-36.34-15.75-52.4.1C46,74.55,34.15,87,21.59,99,10,110,4.08,123.45,2.85,139.2.89,164.84,7.17,189,16,212.61c18.12,48.8,45.71,92.14,79.17,131.88,45.19,53.74,99.14,96.26,162.25,126.94,28.41,13.79,57.85,24.4,89.87,26.15,22,1.23,41.18-4.33,56.52-21.52,10.5-11.74,22.34-22.44,33.46-33.67,16.47-16.67,16.58-36.85.21-53.32Q408.17,359.56,378.62,330.28Z"/><path class="cls-1" d="M359,248.23l38-6.49A170.54,170.54,0,0,0,252.71,101.83L247.36,140A131.81,131.81,0,0,1,359,248.23Z"/><path class="cls-1" d="M418.36,83.1A280.09,280.09,0,0,0,257.75,3L252.4,41.19A244.44,244.44,0,0,1,459.23,241.64l38-6.49A282.19,282.19,0,0,0,418.36,83.1Z"/></svg>