<svg id="Слой_1" data-name="Слой 1" xmlns="http://www.w3.org/2000/svg" width="100" height="100" viewBox="0 0 100 100">
  <title>rating</title>
  <g>
    <path d="M33.92,52.55a13.82,13.82,0,0,0,2.61-.11,9.06,9.06,0,0,0,5-2.31,10.5,10.5,0,0,0,3.16-6.36h-.11A7,7,0,0,1,39,46.34c-4.3,0-7.05-3.23-7.05-7.31a8.19,8.19,0,0,1,8.15-8.49c4.89,0,7.9,4,7.9,10.07,0,5.25-1.76,8.93-4.11,11.21a11.91,11.91,0,0,1-7,3.19,15.09,15.09,0,0,1-3,.19Zm1.17-13.74c0,3,1.8,5.07,4.6,5.07a5.36,5.36,0,0,0,4.7-2.5,2.16,2.16,0,0,0,.29-1.18c0-4.07-1.5-7.2-4.88-7.2C37,33,35.09,35.43,35.09,38.81Z" style="fill: #a34848"/>
    <path d="M51.15,52.92a2.18,2.18,0,0,1,2.21-2.32,2.32,2.32,0,1,1-2.21,2.32Z" style="fill: #a34848"/>
    <path d="M58.5,54.83v-2L61,50.38c6.1-5.8,8.85-8.89,8.89-12.49,0-2.43-1.18-4.67-4.74-4.67a8.17,8.17,0,0,0-5.07,2l-1-2.27a10.44,10.44,0,0,1,6.76-2.43c5.15,0,7.31,3.53,7.31,7,0,4.4-3.19,8-8.23,12.82L63,52.07v.08H73.75v2.68Z" style="fill: #a34848"/>
  </g>
  <g>
    <path d="M40.29,89.28c0,3.2-1.95,4.9-4.32,4.9s-4.18-1.9-4.18-4.72,1.84-4.88,4.32-4.88S40.29,86.52,40.29,89.28Zm-7.22.15c0,2,1.08,3.77,3,3.77s3-1.75,3-3.86c0-1.85-1-3.78-3-3.78S33.07,87.39,33.07,89.43Z" style="fill: #bc6161"/>
    <path d="M43,87.35v5.73h3.08V87.35h1.2v5.77h.69l-.07,3h-.94l0-2.12H41.77V87.35Z" style="fill: #bc6161"/>
    <path d="M50,90.91a2.14,2.14,0,0,0,2.29,2.32,4.26,4.26,0,0,0,1.85-.35l.21.87a5.29,5.29,0,0,1-2.22.42,3.1,3.1,0,0,1-3.28-3.37c0-2,1.18-3.6,3.13-3.6,2.18,0,2.76,1.92,2.76,3.15a3.37,3.37,0,0,1-.05.56ZM53.56,90a1.72,1.72,0,0,0-1.68-2A2,2,0,0,0,50,90Z" style="fill: #bc6161"/>
    <path d="M57.41,87.35V90h3.17V87.35h1.2V94h-1.2V91H57.41v3h-1.2V87.35Z" style="fill: #bc6161"/>
    <path d="M65,87.35v2.9h.29l2.51-2.9h1.48l-2.91,3c1.07.11,1.72.83,2.25,2A15,15,0,0,0,69.29,94H68a9.19,9.19,0,0,1-.63-1.37,2.16,2.16,0,0,0-2.2-1.57H65V94h-1.2V87.35Z" style="fill: #bc6161"/>
    <path d="M74.2,94l-.1-.84h0a2.49,2.49,0,0,1-2,1,1.9,1.9,0,0,1-2-1.92c0-1.61,1.43-2.49,4-2.48v-.14a1.37,1.37,0,0,0-1.51-1.54,3.37,3.37,0,0,0-1.74.49l-.28-.8a4.13,4.13,0,0,1,2.2-.59c2,0,2.53,1.39,2.53,2.73v2.5A9.73,9.73,0,0,0,75.3,94ZM74,90.62c-1.32,0-2.83.21-2.83,1.51a1.07,1.07,0,0,0,1.15,1.15A1.65,1.65,0,0,0,74,92.17a1.4,1.4,0,0,0,.07-.39Z" style="fill: #bc6161"/>
  </g>
  <path d="M52,5A38,38,0,1,0,90,43,38,38,0,0,0,52,5Zm0,71.25A33.25,33.25,0,1,1,85.25,43,33.25,33.25,0,0,1,52,76.25Z" style="fill: #d8d8d8"/>
</svg>
