<svg id="Layer_1" data-name="Layer 1" xmlns="http://www.w3.org/2000/svg" viewBox="0 0 200 50"><defs><style>.cls-1{fill:red;}</style></defs><title>social-yandex</title><path class="cls-1" d="M15.05,26,9.82,37.79H6l5.75-12.58c-2.7-1.37-4.51-3.86-4.51-8.45,0-6.44,4.08-9.66,8.93-9.66h4.94V37.79H17.8V26ZM17.8,9.89H16c-2.66,0-5.23,1.76-5.23,6.87,0,4.94,2.36,6.52,5.23,6.52H17.8Z"/><path d="M37,16.16V37.79h-3.3v-9.7h-5v9.7H25.4V16.16h3.35v9.18h5V16.16ZM54.24,42h-3V37.79H42V42H39V35h1.33c2-4.59,2.19-11.28,2.19-17V16.16h10V35h1.72Zm-5-23.18H45.48v.39c0,4.55-.21,11.2-2,15.79h5.75ZM63.47,38.09c-4.47,0-7.21-3.56-7.21-10.21,0-7,1.93-12,6.52-12,3.6,0,6,2.7,6,10v1.85h-9c0,4.89,1.38,7.46,4,7.46A7.48,7.48,0,0,0,68,33.76l.78,2.57A8.56,8.56,0,0,1,63.47,38.09ZM59.77,25h5.54c0-3.69-.6-6.39-2.53-6.39S60,21.14,59.77,25Zm15.75,2V37.79H72.18V16.16h3.34v10l5.2-10h3.39L78.74,26.33l6.14,11.46H81.23ZM85.31,27c0-6.78,2.62-11.11,7.68-11.11A6.8,6.8,0,0,1,97,17l-.47,3.18A5.74,5.74,0,0,0,93,18.65c-2.41,0-4.12,2.7-4.12,8.15s1.28,8.5,4,8.5A5.47,5.47,0,0,0,96.47,34l.77,2.49a6.58,6.58,0,0,1-4.51,1.63C88.1,38.09,85.31,34.36,85.31,27Z"/><path d="M120,37.79H106.87l-.3,5.11H104.9V36h.9c1.5-1.25,2.23-4.68,2.66-9.06.43-4.54.55-11.33.68-19.87h10.73V36H122V42.9H120.3ZM117.73,8.86h-6.65c-.13,7.77-.35,13.69-.69,18.11-.39,4.6-1.07,7.64-2.23,9.06h9.57Z"/><path d="M130.86,36.46a5.51,5.51,0,0,0,4.38-2.32l.64,1.63a6.24,6.24,0,0,1-5.06,2.45c-4.59,0-6.7-4.17-6.7-11.25s2.66-11.24,6.31-11.24,6.14,3.91,5.45,11.59H126.1C126.18,33.24,127.73,36.46,130.86,36.46Zm-4.72-10.73H134c.34-5.75-1.38-8.33-3.57-8.33S126.31,20.32,126.14,25.73Z"/><path d="M149.1,27.36h-7.38V37.79h-2V16.16h2v9.57h7.38V16.16h2V37.79h-2Z"/><path d="M155.89,16.16h2v8h1.59c4.12,0,6.78,2.24,6.78,6.74s-2.83,6.87-6.91,6.87h-3.47Zm2,9.61V36.2h1.29c3.05,0,5.11-1.5,5.11-5.23s-1.8-5.2-4.89-5.2Z"/><path d="M171.72,17.83v20h-2V16.16h9.14v1.67Z"/><path d="M192.07,22.73a28.9,28.9,0,0,1,.17-3h-.13A17.92,17.92,0,0,1,191,22.55l-7,15.24H182.2V16.16h1.89v15c0,1.16-.09,2.1-.17,3H184a23.73,23.73,0,0,1,1.16-2.88l7-15.19H194V37.79h-1.93Z"/></svg>