<svg id="Layer_1" data-name="Layer 1" xmlns="http://www.w3.org/2000/svg" xmlns:xlink="http://www.w3.org/1999/xlink" viewBox="0 0 800 800"><defs><style>.cls-1{fill:#515151;}.cls-2,.cls-3{fill:#fff;}.cls-2{opacity:0.22;}.cls-4{fill:url(#linear-gradient);}</style><linearGradient id="linear-gradient" x1="-1.21" y1="-277.24" x2="333.79" y2="302.99" gradientUnits="userSpaceOnUse"><stop offset="0" stop-color="#fff"/><stop offset="1" stop-color="#fff" stop-opacity="0"/></linearGradient></defs><title>social-instagram</title><rect class="cls-1" width="800" height="800"/><polygon class="cls-2" points="73 800 800 229 800 0 0 0 0 800 73 800"/><path class="cls-3" d="M258.08,224.6H518.83a45.15,45.15,0,0,1,45,45V530.39a45.14,45.14,0,0,1-45,45H258.08a45.16,45.16,0,0,1-45-45V269.63A45.17,45.17,0,0,1,258.08,224.6Zm210.53,39a15.85,15.85,0,0,0-15.8,15.82v37.78A15.84,15.84,0,0,0,468.61,333h39.64a15.85,15.85,0,0,0,15.8-15.81V279.38a15.86,15.86,0,0,0-15.8-15.82ZM524.2,373H493.33a102.8,102.8,0,0,1,4.52,30.12c0,58.33-48.85,105.65-109.07,105.65s-109-47.32-109-105.65A102.8,102.8,0,0,1,284.25,373H252v148.2A13.94,13.94,0,0,0,266,535.07h244.3a13.94,13.94,0,0,0,13.93-13.92ZM388.78,331c-38.89,0-70.45,30.55-70.45,68.27s31.56,68.27,70.45,68.27,70.47-30.58,70.47-68.27S427.69,331,388.78,331Z"/><polyline class="cls-4" points="-203.08 612.96 781.92 -160.68 -203.08 -160.68"/></svg>