<svg id="Layer_1" data-name="Layer 1" xmlns="http://www.w3.org/2000/svg" viewBox="0 0 90 50"><defs><style>.cls-1{fill:#00589f;}.cls-2{fill:#f9a51a;}</style></defs><title>social-visa</title><polygon class="cls-1" points="31.71 38.08 36.26 11.35 43.55 11.35 38.99 38.08 31.71 38.08 31.71 38.08"/><path class="cls-1" d="M65.42,12a18.92,18.92,0,0,0-6.53-1.12c-7.2,0-12.28,3.63-12.32,8.82,0,3.84,3.62,6,6.38,7.27s3.8,2.14,3.78,3.31c0,1.79-2.26,2.61-4.36,2.61a15.29,15.29,0,0,1-6.86-1.4l-.93-.42-1,6a23.12,23.12,0,0,0,8.12,1.43c7.66,0,12.63-3.59,12.69-9.14,0-3-1.92-5.35-6.12-7.26-2.55-1.24-4.11-2.06-4.09-3.32s1.32-2.29,4.17-2.29a13.4,13.4,0,0,1,5.45,1l.66.31,1-5.8Z"/><path class="cls-1" d="M84.1,11.37H78.47c-1.74,0-3,.48-3.82,2.22L63.83,38.09h7.66s1.24-3.3,1.53-4h9.33c.22.94.89,4,.89,4H90L84.1,11.37Zm-9,17.23L78,21.13c0,.07.6-1.55,1-2.55l.5,2.3s1.39,6.38,1.69,7.72Z"/><path class="cls-1" d="M25.59,11.37,18.46,29.6l-.76-3.71C16.37,21.62,12.23,17,7.61,14.68l6.52,23.38h7.71L33.31,11.37Z"/><path class="cls-2" d="M11.84,11.35H.09L0,11.9c9.14,2.22,15.19,7.57,17.7,14L15.15,13.61c-.44-1.7-1.73-2.2-3.31-2.26Z"/></svg>