<svg id="Layer_1" data-name="Layer 1" xmlns="http://www.w3.org/2000/svg" xmlns:xlink="http://www.w3.org/1999/xlink" viewBox="0 0 800 800"><defs><style>.cls-1{fill:#515151;}.cls-2,.cls-3{fill:#fff;}.cls-2{opacity:0.22;}.cls-4{fill:url(#linear-gradient);}</style><linearGradient id="linear-gradient" x1="-1.21" y1="-277.24" x2="333.79" y2="302.99" gradientUnits="userSpaceOnUse"><stop offset="0" stop-color="#fff"/><stop offset="1" stop-color="#fff" stop-opacity="0"/></linearGradient></defs><title>social-vk</title><rect class="cls-1" width="800" height="800"/><polygon class="cls-2" points="73 800 800 229 800 0 0 0 0 800 73 800"/><path class="cls-3" d="M378,532.24h27.95s8.43-.92,12.74-5.57c4-4.28,3.85-12.27,3.85-12.27s-.55-37.5,16.86-43c17.16-5.46,39.17,36.23,62.55,52.25,17.65,12.15,31.08,9.48,31.08,9.48l62.42-.87s32.66-2,17.16-27.69c-1.27-2.12-9-19-46.42-53.73-39.14-36.31-33.91-30.46,13.25-93.31,28.74-38.27,40.21-61.63,36.63-71.66-3.43-9.54-24.53-7-24.53-7l-70.33.43s-5.2-.71-9.08,1.58-6.19,7.56-6.19,7.56-11.14,29.64-26,54.78c-31.29,53.19-43.82,56-48.93,52.7-11.91-7.72-8.93-30.92-8.93-47.41,0-51.52,7.81-73-15.22-78.54-7.62-1.85-13.27-3.07-32.79-3.26-25.11-.27-46.33.08-58.35,6-8,3.89-14.17,12.64-10.41,13.14,4.65.62,15.19,2.85,20.77,10.44C333.26,306,333,328,333,328s4.14,60.65-9.68,68.18c-9.47,5.19-22.47-5.38-50.39-53.6-14.29-24.7-25.08-52-25.08-52s-2.07-5.08-5.79-7.82c-4.52-3.31-10.82-4.36-10.82-4.36l-66.79.44s-10,.27-13.72,4.65c-3.26,3.86-.25,11.89-.25,11.89S202.78,417.75,262,479.4C316.3,536,378,532.24,378,532.24Z"/><polyline class="cls-4" points="-203.08 612.96 781.92 -160.68 -203.08 -160.68"/></svg>