<svg id="Layer_1" data-name="Layer 1" xmlns="http://www.w3.org/2000/svg" viewBox="0 0 90 50"><defs><style>.cls-1{fill:#fcb331;}.cls-1,.cls-2,.cls-3{fill-rule:evenodd;}.cls-2{fill:#ed1b2e;}.cls-3{fill:#fff;}.cls-4{fill:none;stroke:#fff;stroke-miterlimit:2.61;stroke-width:0.22px;}</style></defs><title>social-mastercard</title><polygon class="cls-1" points="61.54 49.79 62.83 49.76 64.1 49.66 65.34 49.5 66.58 49.29 67.78 49.01 68.96 48.67 70.12 48.28 71.26 47.83 72.36 47.33 73.44 46.78 74.48 46.18 75.5 45.53 76.47 44.83 77.42 44.09 78.32 43.31 79.19 42.48 80.02 41.61 80.8 40.71 81.54 39.77 82.24 38.79 82.89 37.77 83.49 36.73 84.04 35.66 84.54 34.55 84.99 33.41 85.38 32.25 85.72 31.07 86 29.87 86.21 28.63 86.37 27.39 86.47 26.12 86.5 24.83 86.47 23.55 86.37 22.29 86.21 21.05 86 19.83 85.72 18.63 85.38 17.45 84.99 16.29 84.54 15.17 84.04 14.07 83.49 12.99 82.89 11.96 82.24 10.94 81.54 9.97 80.8 9.03 80.02 8.13 79.19 7.26 78.32 6.44 77.42 5.66 76.47 4.92 75.5 4.22 74.48 3.57 73.44 2.97 72.36 2.43 71.26 1.92 70.12 1.48 68.96 1.08 67.78 0.75 66.58 0.47 65.34 0.25 64.1 0.09 62.83 0 61.54 -0.03 60.26 0 59 0.09 57.75 0.25 56.52 0.47 55.32 0.75 54.14 1.08 52.99 1.48 51.85 1.92 50.75 2.43 49.69 2.97 48.64 3.57 47.63 4.22 46.66 4.92 45.72 5.66 44.82 6.44 43.95 7.26 43.13 8.13 42.35 9.03 41.61 9.97 40.92 10.94 40.27 11.96 39.68 12.99 39.12 14.07 38.63 15.17 38.18 16.29 37.79 17.45 37.46 18.63 37.18 19.83 36.96 21.05 36.8 22.29 36.71 23.55 36.68 24.83 36.71 26.12 36.8 27.39 36.96 28.63 37.18 29.87 37.46 31.07 37.79 32.25 38.18 33.41 38.63 34.55 39.12 35.66 39.68 36.73 40.27 37.77 40.92 38.79 41.61 39.77 42.35 40.71 43.13 41.61 43.95 42.48 44.82 43.31 45.72 44.09 46.66 44.83 47.63 45.53 48.64 46.18 49.69 46.78 50.75 47.33 51.85 47.83 52.99 48.28 54.14 48.67 55.32 49.01 56.52 49.29 57.75 49.5 59 49.66 60.26 49.76 61.54 49.79 61.54 49.79 61.54 49.79"/><polygon class="cls-2" points="28.21 49.79 29.49 49.76 30.76 49.66 32 49.5 33.23 49.29 34.43 49.01 35.62 48.67 36.77 48.28 37.9 47.83 39 47.33 40.07 46.78 41.11 46.18 42.12 45.53 43.1 44.83 44.04 44.09 44.94 43.31 45.8 42.48 46.63 41.61 47.41 40.71 48.15 39.77 48.84 38.79 49.48 37.77 50.08 36.73 50.63 35.66 51.13 34.55 51.58 33.41 51.96 32.25 52.3 31.07 52.58 29.87 52.79 28.63 52.95 27.39 53.05 26.12 53.08 24.83 53.05 23.55 52.95 22.29 52.79 21.05 52.58 19.83 52.3 18.63 51.96 17.45 51.58 16.29 51.13 15.17 50.63 14.07 50.08 12.99 49.48 11.96 48.84 10.94 48.15 9.97 47.41 9.03 46.63 8.13 45.8 7.26 44.94 6.44 44.04 5.66 43.1 4.92 42.12 4.22 41.11 3.57 40.07 2.97 39 2.43 37.9 1.92 36.77 1.48 35.62 1.08 34.43 0.75 33.23 0.47 32 0.25 30.76 0.09 29.49 0 28.21 -0.03 26.93 0 25.66 0.09 24.42 0.25 23.18 0.47 21.98 0.75 20.79 1.08 19.63 1.48 18.5 1.92 17.39 2.43 16.32 2.97 15.27 3.57 14.26 4.22 13.28 4.92 12.34 5.66 11.43 6.44 10.57 7.26 9.73 8.13 8.95 9.03 8.21 9.97 7.52 10.94 6.87 11.96 6.26 12.99 5.72 14.07 5.21 15.17 4.77 16.29 4.37 17.45 4.04 18.63 3.76 19.83 3.54 21.05 3.38 22.29 3.29 23.55 3.26 24.83 3.29 26.12 3.38 27.39 3.54 28.63 3.76 29.87 4.04 31.07 4.37 32.25 4.77 33.41 5.21 34.55 5.72 35.66 6.26 36.73 6.87 37.77 7.52 38.79 8.21 39.77 8.95 40.71 9.73 41.61 10.57 42.48 11.43 43.31 12.34 44.09 13.28 44.83 14.26 45.53 15.27 46.18 16.32 46.78 17.39 47.33 18.5 47.83 19.63 48.28 20.79 48.67 21.98 49.01 23.18 49.29 24.42 49.5 25.66 49.66 26.93 49.76 28.21 49.79 28.21 49.79 28.21 49.79"/><polygon class="cls-1" points="41.96 9.52 55.2 9.52 55.2 8.17 43.1 8.17 41.96 9.52 41.96 9.52 41.96 9.52"/><polygon class="cls-1" points="39.98 12.53 55.2 12.53 55.2 11.18 40.78 11.18 39.98 12.53 39.98 12.53 39.98 12.53"/><polygon class="cls-1" points="38.5 15.53 55.2 15.53 55.2 14.18 39.09 14.18 38.5 15.53 38.5 15.53 38.5 15.53"/><polygon class="cls-1" points="37.48 18.54 55.2 18.54 55.2 17.18 37.9 17.18 37.48 18.54 37.48 18.54 37.48 18.54"/><polygon class="cls-1" points="38.07 33.08 55.24 33.08 55.24 31.72 37.65 31.72 38.07 33.08 38.07 33.08 38.07 33.08"/><polygon class="cls-1" points="39.34 36.08 55.24 36.08 55.24 34.73 38.71 34.73 39.34 36.08 39.34 36.08 39.34 36.08"/><polygon class="cls-1" points="41.12 39.08 55.24 39.08 55.24 37.73 40.27 37.73 41.12 39.08 41.12 39.08 41.12 39.08"/><polygon class="cls-1" points="43.58 42.09 55.24 42.09 55.24 40.73 42.39 40.73 43.58 42.09 43.58 42.09 43.58 42.09"/><polygon class="cls-1" points="36.89 21.54 55.2 21.54 55.2 20.18 37.15 20.18 36.89 21.54 36.89 21.54 36.89 21.54"/><polygon class="cls-1" points="48.05 30.08 55.03 30.08 55.03 28.72 48.3 28.72 48.05 30.08 48.05 30.08 48.05 30.08"/><polygon class="cls-1" points="48.6 27.08 55.03 27.08 55.03 25.71 48.85 25.71 48.6 27.08 48.6 27.08 48.6 27.08"/><polygon class="cls-1" points="36.42 25.71 38.24 25.71 38.24 27.08 36.51 27.08 36.42 25.71 36.42 25.71 36.42 25.71"/><polygon class="cls-3" points="33.04 24.07 32.92 24.07 32.8 24.05 32.69 24.03 32.58 24.02 32.48 24 32.37 23.98 32.26 23.97 32.15 23.95 32.03 23.93 31.89 23.92 31.74 23.92 31.58 23.91 31.41 23.91 31.21 23.92 31 23.93 30.75 23.95 30.58 23.98 30.42 24 30.28 24.05 30.16 24.1 30.04 24.16 29.93 24.23 29.84 24.31 29.77 24.39 29.72 24.48 29.68 24.57 29.66 24.67 29.66 24.77 29.68 24.88 29.72 24.99 29.79 25.1 29.87 25.21 30.04 25.37 30.24 25.5 30.47 25.61 30.73 25.7 31 25.78 31.27 25.87 31.55 25.98 31.82 26.08 32.07 26.23 32.31 26.4 32.52 26.61 32.69 26.87 32.83 27.19 32.91 27.57 32.95 28.02 32.91 28.55 32.85 28.95 32.75 29.29 32.62 29.61 32.45 29.89 32.26 30.13 32.04 30.34 31.8 30.53 31.54 30.69 31.27 30.82 31 30.92 30.71 31.01 30.42 31.07 30.13 31.13 29.85 31.15 29.57 31.17 29.32 31.18 28.95 31.18 28.62 31.17 28.32 31.17 28.05 31.16 27.79 31.15 27.57 31.13 27.36 31.12 27.17 31.09 27 31.07 26.84 31.04 26.68 31.02 26.53 30.98 26.39 30.94 26.26 30.89 26.12 30.84 25.98 30.79 26.36 28.93 26.43 28.95 26.52 28.98 26.64 29.01 26.79 29.04 26.94 29.08 27.11 29.11 27.29 29.15 27.49 29.18 27.7 29.22 27.92 29.25 28.15 29.28 28.38 29.3 28.63 29.31 28.87 29.32 29.11 29.32 29.36 29.31 29.6 29.26 29.79 29.19 29.95 29.1 30.06 28.98 30.15 28.86 30.21 28.73 30.26 28.6 30.29 28.47 30.31 28.23 30.23 28.02 30.09 27.85 29.88 27.71 29.63 27.58 29.33 27.45 29 27.34 28.68 27.2 28.34 27.05 28.02 26.87 27.73 26.66 27.46 26.39 27.25 26.07 27.1 25.7 27.02 25.24 27.03 24.71 27.07 24.38 27.13 24.07 27.21 23.78 27.32 23.51 27.45 23.26 27.6 23.04 27.78 22.83 27.99 22.65 28.23 22.49 28.5 22.35 28.8 22.23 29.14 22.13 29.52 22.06 29.93 22 30.38 21.97 30.88 21.96 31.19 21.96 31.47 21.97 31.73 21.98 31.97 21.98 32.18 22 32.37 22.02 32.54 22.03 32.69 22.05 32.84 22.07 32.95 22.09 33.06 22.11 33.16 22.13 33.25 22.14 33.32 22.15 33.4 22.17 33.47 22.18 33.04 24.07 33.04 24.07 33.04 24.07"/><polyline class="cls-4" points="33.04 24.07 33.04 24.07 32.92 24.07 32.8 24.05 32.69 24.03 32.58 24.02 32.48 24 32.37 23.98 32.26 23.97 32.15 23.95 32.03 23.93 31.89 23.92 31.74 23.92 31.58 23.91 31.41 23.91 31.21 23.92 31 23.93 30.75 23.95 30.75 23.95 30.58 23.98 30.42 24 30.28 24.05 30.16 24.1 30.04 24.16 29.93 24.23 29.84 24.31 29.77 24.39 29.72 24.48 29.68 24.57 29.66 24.67 29.66 24.77 29.68 24.88 29.72 24.99 29.79 25.1 29.87 25.21 29.87 25.21 30.04 25.37 30.24 25.5 30.47 25.61 30.73 25.7 31 25.78 31.27 25.87 31.55 25.98 31.82 26.08 32.07 26.23 32.31 26.4 32.52 26.61 32.69 26.87 32.83 27.19 32.91 27.57 32.95 28.02 32.91 28.55 32.91 28.55 32.85 28.95 32.75 29.29 32.62 29.61 32.45 29.89 32.26 30.13 32.04 30.34 31.8 30.53 31.54 30.69 31.27 30.82 31 30.92 30.71 31.01 30.42 31.07 30.13 31.13 29.85 31.15 29.57 31.17 29.32 31.18 29.32 31.18 28.95 31.18 28.62 31.17 28.32 31.17 28.05 31.16 27.79 31.15 27.57 31.13 27.36 31.12 27.17 31.09 27 31.07 26.84 31.04 26.68 31.02 26.53 30.98 26.39 30.94 26.26 30.89 26.12 30.84 25.98 30.79 26.36 28.93 26.36 28.93 26.43 28.95 26.52 28.98 26.64 29.01 26.79 29.04 26.94 29.08 27.11 29.11 27.29 29.15 27.49 29.18 27.7 29.22 27.92 29.25 28.15 29.28 28.38 29.3 28.63 29.31 28.87 29.32 29.11 29.32 29.36 29.31 29.36 29.31 29.6 29.26 29.79 29.19 29.95 29.1 30.06 28.98 30.15 28.86 30.21 28.73 30.26 28.6 30.29 28.47 30.29 28.47 30.31 28.23 30.23 28.02 30.09 27.85 29.88 27.71 29.63 27.58 29.33 27.45 29 27.34 28.68 27.2 28.34 27.05 28.02 26.87 27.73 26.66 27.46 26.39 27.25 26.07 27.1 25.7 27.02 25.24 27.03 24.71 27.03 24.71 27.07 24.38 27.13 24.07 27.21 23.78 27.32 23.51 27.45 23.26 27.6 23.04 27.78 22.83 27.99 22.65 28.23 22.49 28.5 22.35 28.8 22.23 29.14 22.13 29.52 22.06 29.93 22 30.38 21.97 30.88 21.96 30.88 21.96 31.19 21.96 31.47 21.97 31.73 21.98 31.97 21.98 32.18 22 32.37 22.02 32.54 22.03 32.69 22.05 32.84 22.07 32.95 22.09 33.06 22.11 33.16 22.13 33.25 22.14 33.32 22.15 33.4 22.17 33.47 22.18 33.04 24.07"/><polygon class="cls-3" points="35.03 20.1 37.36 20.1 37.01 22.13 38.42 22.13 38.11 24.03 36.63 23.99 35.83 28.68 35.82 28.85 35.86 28.99 35.95 29.1 36.05 29.19 36.21 29.25 36.37 29.3 36.56 29.34 36.76 29.35 36.95 29.34 37.11 29.33 37.26 29.3 37.4 29.27 37.51 29.23 37.58 29.21 37.63 29.19 37.65 29.18 37.36 30.75 37.3 30.79 37.24 30.82 37.18 30.86 37.12 30.89 37.06 30.92 37 30.94 36.92 30.97 36.84 30.99 36.76 31.02 36.68 31.03 36.58 31.05 36.48 31.07 36.37 31.08 36.24 31.1 36.1 31.12 35.96 31.13 35.32 31.13 34.99 31.11 34.69 31.07 34.42 31.02 34.2 30.97 34 30.89 33.84 30.81 33.7 30.71 33.59 30.6 33.51 30.48 33.45 30.34 33.41 30.19 33.38 30.03 33.37 29.86 33.37 29.67 33.4 29.48 33.42 29.27 35.03 20.1 35.03 20.1 35.03 20.1"/><polyline class="cls-4" points="35.03 20.1 37.36 20.1 37.01 22.13 38.42 22.13 38.11 24.03 36.63 23.99 35.83 28.68 35.83 28.68 35.82 28.85 35.86 28.99 35.95 29.1 36.05 29.19 36.21 29.25 36.37 29.3 36.56 29.34 36.76 29.35 36.76 29.35 36.95 29.34 37.11 29.33 37.26 29.3 37.4 29.27 37.51 29.23 37.58 29.21 37.63 29.19 37.65 29.18 37.36 30.75 37.36 30.75 37.3 30.79 37.24 30.82 37.18 30.86 37.12 30.89 37.06 30.92 37 30.94 36.92 30.97 36.84 30.99 36.76 31.02 36.68 31.03 36.58 31.05 36.48 31.07 36.37 31.08 36.24 31.1 36.1 31.12 35.96 31.13 35.32 31.13 35.32 31.13 34.99 31.11 34.69 31.07 34.42 31.02 34.2 30.97 34 30.89 33.84 30.81 33.7 30.71 33.59 30.6 33.51 30.48 33.45 30.34 33.41 30.19 33.38 30.03 33.37 29.86 33.37 29.67 33.4 29.48 33.42 29.27 35.03 20.1"/><polygon class="cls-3" points="40.27 27.2 40.25 27.34 40.24 27.5 40.26 27.66 40.29 27.82 40.35 27.98 40.42 28.13 40.51 28.29 40.61 28.43 40.73 28.57 40.85 28.7 40.99 28.82 41.14 28.92 41.29 29.02 41.46 29.09 41.63 29.15 41.79 29.18 42.01 29.22 42.22 29.24 42.44 29.27 42.66 29.29 42.88 29.29 43.1 29.29 43.32 29.29 43.55 29.27 43.78 29.23 44 29.19 44.24 29.14 44.47 29.07 44.7 28.98 44.95 28.87 45.18 28.74 45.42 28.6 45.09 30.66 44.95 30.73 44.82 30.8 44.69 30.85 44.56 30.9 44.43 30.94 44.3 30.98 44.16 31.02 44.02 31.04 43.87 31.07 43.7 31.08 43.52 31.1 43.33 31.12 43.11 31.13 42.89 31.13 42.63 31.13 42.35 31.13 41.94 31.13 41.52 31.08 41.1 31.02 40.68 30.92 40.26 30.8 39.87 30.64 39.49 30.43 39.14 30.18 38.81 29.9 38.52 29.55 38.28 29.17 38.08 28.72 37.94 28.23 37.84 27.66 37.82 27.04 37.86 26.35 37.9 26.08 37.95 25.77 38.01 25.45 38.1 25.09 38.23 24.73 38.38 24.37 38.58 24 38.81 23.65 39.08 23.31 39.41 22.99 39.78 22.71 40.2 22.45 40.69 22.24 41.23 22.09 41.84 21.99 42.52 21.96 42.84 21.97 43.19 22 43.53 22.06 43.88 22.14 44.21 22.27 44.54 22.42 44.84 22.62 45.12 22.86 45.37 23.14 45.58 23.48 45.75 23.87 45.87 24.31 45.94 24.82 45.95 25.39 45.89 26.02 45.76 26.73 45.72 27.24 39.59 27.24 39.98 25.59 43.66 25.59 43.68 25.38 43.67 25.18 43.65 24.99 43.62 24.82 43.56 24.66 43.5 24.52 43.42 24.39 43.33 24.28 43.23 24.18 43.12 24.09 43 24.02 42.87 23.95 42.73 23.9 42.6 23.87 42.46 23.84 42.31 23.82 42.15 23.83 42 23.86 41.85 23.89 41.71 23.94 41.57 24.01 41.44 24.08 41.31 24.18 41.21 24.28 41.1 24.39 40.99 24.52 40.9 24.66 40.83 24.8 40.75 24.95 40.69 25.12 40.64 25.29 40.61 25.46 40.27 27.2 40.27 27.2 40.27 27.2"/><polyline class="cls-4" points="40.27 27.2 40.27 27.2 40.25 27.34 40.24 27.5 40.26 27.66 40.29 27.82 40.35 27.98 40.42 28.13 40.51 28.29 40.61 28.43 40.73 28.57 40.85 28.7 40.99 28.82 41.14 28.92 41.29 29.02 41.46 29.09 41.63 29.15 41.79 29.18 41.79 29.18 42.01 29.22 42.22 29.24 42.44 29.27 42.66 29.29 42.88 29.29 43.1 29.29 43.32 29.29 43.55 29.27 43.78 29.23 44 29.19 44.24 29.14 44.47 29.07 44.7 28.98 44.95 28.87 45.18 28.74 45.42 28.6 45.09 30.66 45.09 30.66 44.95 30.73 44.82 30.8 44.69 30.85 44.56 30.9 44.43 30.94 44.3 30.98 44.16 31.02 44.02 31.04 43.87 31.07 43.7 31.08 43.52 31.1 43.33 31.12 43.11 31.13 42.89 31.13 42.63 31.13 42.35 31.13 42.35 31.13 41.94 31.13 41.52 31.08 41.1 31.02 40.68 30.92 40.26 30.8 39.87 30.64 39.49 30.43 39.14 30.18 38.81 29.9 38.52 29.55 38.28 29.17 38.08 28.72 37.94 28.23 37.84 27.66 37.82 27.04 37.86 26.35 37.86 26.35 37.9 26.08 37.95 25.77 38.01 25.45 38.1 25.09 38.23 24.73 38.38 24.37 38.58 24 38.81 23.65 39.08 23.31 39.41 22.99 39.78 22.71 40.2 22.45 40.69 22.24 41.23 22.09 41.84 21.99 42.52 21.96 42.52 21.96 42.84 21.97 43.19 22 43.53 22.06 43.88 22.14 44.21 22.27 44.54 22.42 44.84 22.62 45.12 22.86 45.37 23.14 45.58 23.48 45.75 23.87 45.87 24.31 45.94 24.82 45.95 25.39 45.89 26.02 45.76 26.73 45.72 27.24 39.59 27.24 39.98 25.59 43.66 25.59 43.66 25.59 43.68 25.38 43.67 25.18 43.65 24.99 43.62 24.82 43.56 24.66 43.5 24.52 43.42 24.39 43.33 24.28 43.23 24.18 43.12 24.09 43 24.02 42.87 23.95 42.73 23.9 42.6 23.87 42.46 23.84 42.31 23.82 42.31 23.82 42.15 23.83 42 23.86 41.85 23.89 41.71 23.94 41.57 24.01 41.44 24.08 41.31 24.18 41.21 24.28 41.1 24.39 40.99 24.52 40.9 24.66 40.83 24.8 40.75 24.95 40.69 25.12 40.64 25.29 40.61 25.46 40.27 27.2"/><polygon class="cls-3" points="60.31 22.64 60.21 22.58 60.1 22.53 59.98 22.47 59.85 22.41 59.73 22.36 59.58 22.31 59.44 22.26 59.29 22.21 59.13 22.17 58.97 22.13 58.79 22.1 58.62 22.07 58.42 22.06 58.23 22.04 58.03 22.04 57.82 22.04 57.61 22.04 57.39 22.06 57.16 22.08 56.93 22.13 56.69 22.19 56.46 22.29 56.22 22.4 55.99 22.55 55.76 22.74 55.54 22.96 55.33 23.23 55.13 23.54 54.95 23.91 54.77 24.33 54.61 24.8 54.48 25.34 54.42 25.64 54.39 25.93 54.37 26.23 54.38 26.51 54.41 26.8 54.47 27.07 54.54 27.32 54.63 27.57 54.76 27.8 54.91 28.02 55.09 28.21 55.29 28.39 55.52 28.54 55.78 28.66 56.06 28.77 56.38 28.85 56.49 28.87 56.62 28.9 56.77 28.92 56.94 28.93 57.12 28.95 57.31 28.95 57.52 28.95 57.73 28.93 57.95 28.91 58.17 28.86 58.38 28.81 58.59 28.74 58.8 28.65 59 28.54 59.17 28.4 59.34 28.25 58.96 30.5 58.91 30.54 58.86 30.59 58.79 30.65 58.72 30.7 58.63 30.77 58.51 30.82 58.37 30.88 58.22 30.93 58.03 30.99 57.81 31.03 57.56 31.07 57.27 31.1 56.94 31.12 56.56 31.13 56.13 31.12 55.66 31.09 55.27 31.05 54.89 30.97 54.5 30.84 54.11 30.67 53.74 30.47 53.39 30.22 53.05 29.92 52.74 29.59 52.47 29.21 52.23 28.79 52.03 28.32 51.88 27.81 51.78 27.24 51.74 26.65 51.76 25.99 51.85 25.29 51.92 24.95 52 24.61 52.08 24.29 52.16 23.98 52.26 23.68 52.37 23.39 52.48 23.11 52.59 22.85 52.72 22.59 52.84 22.34 52.99 22.11 53.14 21.89 53.29 21.68 53.46 21.48 53.63 21.29 53.8 21.12 54 20.95 54.19 20.79 54.39 20.65 54.6 20.51 54.83 20.39 55.05 20.28 55.29 20.18 55.53 20.08 55.79 20 56.05 19.93 56.32 19.87 56.61 19.82 56.9 19.78 57.2 19.75 57.5 19.73 57.82 19.72 58.09 19.73 58.35 19.75 58.6 19.77 58.85 19.81 59.09 19.84 59.31 19.89 59.53 19.93 59.73 19.98 59.93 20.03 60.1 20.08 60.26 20.13 60.39 20.18 60.51 20.23 60.61 20.26 60.69 20.29 60.73 20.31 60.31 22.64 60.31 22.64 60.31 22.64"/><polyline class="cls-4" points="60.31 22.64 60.31 22.64 60.21 22.58 60.1 22.53 59.98 22.47 59.85 22.41 59.73 22.36 59.58 22.31 59.44 22.26 59.29 22.21 59.13 22.17 58.97 22.13 58.79 22.1 58.62 22.07 58.42 22.06 58.23 22.04 58.03 22.04 57.82 22.04 57.82 22.04 57.61 22.04 57.39 22.06 57.16 22.08 56.93 22.13 56.69 22.19 56.46 22.29 56.22 22.4 55.99 22.55 55.76 22.74 55.54 22.96 55.33 23.23 55.13 23.54 54.95 23.91 54.77 24.33 54.61 24.8 54.48 25.34 54.48 25.34 54.42 25.64 54.39 25.93 54.37 26.23 54.38 26.51 54.41 26.8 54.47 27.07 54.54 27.32 54.63 27.57 54.76 27.8 54.91 28.02 55.09 28.21 55.29 28.39 55.52 28.54 55.78 28.66 56.06 28.77 56.38 28.85 56.38 28.85 56.49 28.87 56.62 28.9 56.77 28.92 56.94 28.93 57.12 28.95 57.31 28.95 57.52 28.95 57.73 28.93 57.95 28.91 58.17 28.86 58.38 28.81 58.59 28.74 58.8 28.65 59 28.54 59.17 28.4 59.34 28.25 58.96 30.5 58.96 30.5 58.91 30.54 58.86 30.59 58.79 30.65 58.72 30.7 58.63 30.77 58.51 30.82 58.37 30.88 58.22 30.93 58.03 30.99 57.81 31.03 57.56 31.07 57.27 31.1 56.94 31.12 56.56 31.13 56.13 31.12 55.66 31.09 55.66 31.09 55.27 31.05 54.89 30.97 54.5 30.84 54.11 30.67 53.74 30.47 53.39 30.22 53.05 29.92 52.74 29.59 52.47 29.21 52.23 28.79 52.03 28.32 51.88 27.81 51.78 27.24 51.74 26.65 51.76 25.99 51.85 25.29 51.85 25.29 51.92 24.95 52 24.61 52.08 24.29 52.16 23.98 52.26 23.68 52.37 23.39 52.48 23.11 52.59 22.85 52.72 22.59 52.84 22.34 52.99 22.11 53.14 21.89 53.29 21.68 53.46 21.48 53.63 21.29 53.8 21.12 54 20.95 54.19 20.79 54.39 20.65 54.6 20.51 54.83 20.39 55.05 20.28 55.29 20.18 55.53 20.08 55.79 20 56.05 19.93 56.32 19.87 56.61 19.82 56.9 19.78 57.2 19.75 57.5 19.73 57.82 19.72 57.82 19.72 58.09 19.73 58.35 19.75 58.6 19.77 58.85 19.81 59.09 19.84 59.31 19.89 59.53 19.93 59.73 19.98 59.93 20.03 60.1 20.08 60.26 20.13 60.39 20.18 60.51 20.23 60.61 20.26 60.69 20.29 60.73 20.31 60.31 22.64"/><polygon class="cls-3" points="81 31.13 78.68 31.13 78.84 30.2 78.84 30.12 78.71 30.29 78.57 30.44 78.42 30.57 78.27 30.69 78.12 30.8 77.97 30.89 77.82 30.97 77.66 31.04 77.5 31.1 77.34 31.14 77.18 31.18 77.01 31.21 76.84 31.23 76.69 31.25 76.52 31.26 76.35 31.26 75.91 31.23 75.51 31.13 75.14 30.99 74.8 30.8 74.5 30.55 74.23 30.27 74 29.96 73.79 29.61 73.63 29.23 73.49 28.83 73.4 28.42 73.33 27.99 73.31 27.56 73.31 27.13 73.36 26.7 73.43 26.27 73.56 25.77 73.71 25.3 73.89 24.87 74.1 24.47 74.31 24.09 74.57 23.76 74.83 23.45 75.11 23.18 75.4 22.93 75.71 22.72 76.03 22.54 76.35 22.39 76.69 22.28 77.02 22.2 77.36 22.15 77.7 22.13 77.94 22.14 78.18 22.17 78.4 22.21 78.6 22.27 78.79 22.34 78.96 22.41 79.13 22.5 79.28 22.6 79.42 22.7 79.54 22.81 79.65 22.92 79.75 23.02 79.84 23.13 79.91 23.24 79.98 23.34 80.03 23.45 80.03 23.45 80.62 20.14 82.9 20.14 81 31.13 81 31.13 81 31.13"/><polyline class="cls-4" points="81 31.13 78.68 31.13 78.84 30.2 78.84 30.12 78.84 30.12 78.71 30.29 78.57 30.44 78.42 30.57 78.27 30.69 78.12 30.8 77.97 30.89 77.82 30.97 77.66 31.04 77.5 31.1 77.34 31.14 77.18 31.18 77.01 31.21 76.84 31.23 76.69 31.25 76.52 31.26 76.35 31.26 76.35 31.26 75.91 31.23 75.51 31.13 75.14 30.99 74.8 30.8 74.5 30.55 74.23 30.27 74 29.96 73.79 29.61 73.63 29.23 73.49 28.83 73.4 28.42 73.33 27.99 73.31 27.56 73.31 27.13 73.36 26.7 73.43 26.27 73.43 26.27 73.56 25.77 73.71 25.3 73.89 24.87 74.1 24.47 74.31 24.09 74.57 23.76 74.83 23.45 75.11 23.18 75.4 22.93 75.71 22.72 76.03 22.54 76.35 22.39 76.69 22.28 77.02 22.2 77.36 22.15 77.7 22.13 77.7 22.13 77.94 22.14 78.18 22.17 78.4 22.21 78.6 22.27 78.79 22.34 78.96 22.41 79.13 22.5 79.28 22.6 79.42 22.7 79.54 22.81 79.65 22.92 79.75 23.02 79.84 23.13 79.91 23.24 79.98 23.34 80.03 23.45 80.03 23.45 80.62 20.14 82.9 20.14 81 31.13"/><polygon class="cls-1" points="77.2 29.1 77.43 29.08 77.65 29.03 77.85 28.98 78.05 28.88 78.22 28.78 78.39 28.66 78.55 28.51 78.69 28.36 78.82 28.19 78.94 28.01 79.05 27.82 79.14 27.61 79.22 27.4 79.29 27.18 79.35 26.96 79.39 26.73 79.43 26.5 79.46 26.25 79.46 26.02 79.45 25.79 79.42 25.57 79.39 25.36 79.33 25.16 79.27 24.97 79.18 24.8 79.08 24.64 78.97 24.5 78.84 24.39 78.7 24.29 78.55 24.22 78.39 24.18 78.21 24.16 77.99 24.18 77.78 24.21 77.58 24.28 77.39 24.36 77.22 24.47 77.06 24.61 76.91 24.75 76.77 24.91 76.64 25.09 76.53 25.29 76.42 25.49 76.32 25.71 76.24 25.93 76.17 26.16 76.11 26.4 76.06 26.65 76.01 27.02 76.03 27.42 76.09 27.83 76.2 28.23 76.37 28.57 76.58 28.85 76.86 29.03 77.2 29.1 77.2 29.1 77.2 29.1"/><polygon class="cls-3" points="25.59 29.27 25.26 31.13 23.14 31.13 23.2 30.79 23.24 30.48 23.27 30.24 23.31 30.12 23.19 30.25 23.05 30.39 22.89 30.51 22.72 30.63 22.52 30.75 22.31 30.85 22.09 30.95 21.86 31.03 21.62 31.11 21.37 31.17 21.13 31.22 20.88 31.25 20.63 31.27 20.39 31.28 20.16 31.25 19.93 31.22 19.63 31.14 19.36 31.06 19.13 30.95 18.92 30.82 18.73 30.69 18.57 30.54 18.43 30.38 18.32 30.21 18.21 30.03 18.13 29.85 18.06 29.66 18.01 29.48 17.98 29.29 17.95 29.09 17.94 28.91 17.94 28.72 17.96 28.39 18.01 28.08 18.1 27.79 18.2 27.5 18.34 27.23 18.49 26.99 18.67 26.76 18.87 26.55 19.08 26.35 19.32 26.18 19.56 26.02 19.81 25.88 20.08 25.77 20.36 25.67 20.64 25.6 20.94 25.55 20.95 25.55 21 25.54 21.05 25.53 21.15 25.52 21.25 25.5 21.36 25.5 21.49 25.48 21.63 25.46 21.78 25.45 21.92 25.43 22.07 25.42 22.21 25.4 22.34 25.39 22.47 25.39 22.58 25.38 22.68 25.38 22.87 25.38 23.07 25.39 23.26 25.39 23.44 25.39 23.59 25.4 23.71 25.41 23.79 25.42 23.82 25.42 23.84 25.36 23.89 25.21 23.93 25.03 23.95 24.87 23.91 24.69 23.84 24.52 23.73 24.37 23.6 24.24 23.44 24.13 23.26 24.06 23.06 24.01 22.84 23.99 22.61 23.98 22.36 23.98 22.1 23.98 21.83 23.98 21.55 24 21.28 24.02 21.01 24.05 20.75 24.08 20.5 24.12 20.26 24.16 20.04 24.2 19.84 24.24 19.65 24.29 19.5 24.34 19.38 24.4 19.29 24.45 19.89 22.43 20.07 22.35 20.26 22.29 20.46 22.23 20.66 22.18 20.86 22.14 21.08 22.11 21.3 22.07 21.52 22.06 21.76 22.04 22 22.03 22.26 22.02 22.52 22.02 22.79 22.02 23.06 22.02 23.36 22.03 23.65 22.04 23.89 22.06 24.14 22.1 24.4 22.16 24.67 22.23 24.93 22.34 25.18 22.45 25.43 22.6 25.67 22.76 25.88 22.94 26.06 23.14 26.23 23.37 26.36 23.62 26.44 23.89 26.49 24.18 26.49 24.5 26.44 24.83 25.59 29.27 25.59 29.27 25.59 29.27"/><polyline class="cls-4" points="25.59 29.27 25.26 31.13 23.14 31.13 23.14 31.13 23.2 30.79 23.24 30.48 23.27 30.24 23.31 30.12 23.31 30.12 23.19 30.25 23.05 30.39 22.89 30.51 22.72 30.63 22.52 30.75 22.31 30.85 22.09 30.95 21.86 31.03 21.62 31.11 21.37 31.17 21.13 31.22 20.88 31.25 20.63 31.27 20.39 31.28 20.16 31.25 19.93 31.22 19.93 31.22 19.63 31.14 19.36 31.06 19.13 30.95 18.92 30.82 18.73 30.69 18.57 30.54 18.43 30.38 18.32 30.21 18.21 30.03 18.13 29.85 18.06 29.66 18.01 29.48 17.98 29.29 17.95 29.09 17.94 28.91 17.94 28.72 17.94 28.72 17.96 28.39 18.01 28.08 18.1 27.79 18.2 27.5 18.34 27.23 18.49 26.99 18.67 26.76 18.87 26.55 19.08 26.35 19.32 26.18 19.56 26.02 19.81 25.88 20.08 25.77 20.36 25.67 20.64 25.6 20.94 25.55 20.94 25.55 20.95 25.55 21 25.54 21.05 25.53 21.15 25.52 21.25 25.5 21.36 25.5 21.49 25.48 21.63 25.46 21.78 25.45 21.92 25.43 22.07 25.42 22.21 25.4 22.34 25.39 22.47 25.39 22.58 25.38 22.68 25.38 22.68 25.38 22.87 25.38 23.07 25.39 23.26 25.39 23.44 25.39 23.59 25.4 23.71 25.41 23.79 25.42 23.82 25.42 23.82 25.42 23.84 25.36 23.89 25.21 23.93 25.03 23.95 24.87 23.95 24.87 23.91 24.69 23.84 24.52 23.73 24.37 23.6 24.24 23.44 24.13 23.26 24.06 23.06 24.01 22.84 23.99 22.84 23.99 22.61 23.98 22.36 23.98 22.1 23.98 21.83 23.98 21.55 24 21.28 24.02 21.01 24.05 20.75 24.08 20.5 24.12 20.26 24.16 20.04 24.2 19.84 24.24 19.65 24.29 19.5 24.34 19.38 24.4 19.29 24.45 19.89 22.43 19.89 22.43 20.07 22.35 20.26 22.29 20.46 22.23 20.66 22.18 20.86 22.14 21.08 22.11 21.3 22.07 21.52 22.06 21.76 22.04 22 22.03 22.26 22.02 22.52 22.02 22.79 22.02 23.06 22.02 23.36 22.03 23.65 22.04 23.65 22.04 23.89 22.06 24.14 22.1 24.4 22.16 24.67 22.23 24.93 22.34 25.18 22.45 25.43 22.6 25.67 22.76 25.88 22.94 26.06 23.14 26.23 23.37 26.36 23.62 26.44 23.89 26.49 24.18 26.49 24.5 26.44 24.83 25.59 29.27"/><polygon class="cls-2" points="23.57 27.08 23.56 27.03 23.52 26.99 23.47 26.97 23.39 26.95 23.3 26.93 23.19 26.92 23.06 26.92 22.94 26.92 22.8 26.93 22.66 26.95 22.52 26.97 22.39 26.98 22.26 27 22.15 27.02 22.05 27.05 21.95 27.08 21.89 27.09 21.83 27.12 21.73 27.15 21.64 27.19 21.53 27.24 21.42 27.3 21.31 27.36 21.2 27.43 21.08 27.51 20.97 27.6 20.87 27.7 20.78 27.8 20.69 27.91 20.63 28.02 20.58 28.16 20.56 28.29 20.55 28.58 20.59 28.81 20.68 28.98 20.79 29.1 20.91 29.18 21.05 29.23 21.19 29.26 21.32 29.27 21.57 29.26 21.8 29.23 22.02 29.2 22.21 29.15 22.38 29.09 22.54 29.02 22.68 28.94 22.81 28.85 22.92 28.77 23.02 28.66 23.11 28.57 23.17 28.47 23.23 28.37 23.28 28.27 23.32 28.18 23.35 28.08 23.42 27.84 23.47 27.56 23.52 27.29 23.57 27.08 23.57 27.08 23.57 27.08"/><polygon class="cls-3" points="7.91 31.13 5.63 31.13 7.53 20.1 11.51 20.1 11.89 26.65 14.63 20.1 18.79 20.1 16.84 31.13 14.55 31.13 15.99 22.89 15.9 22.89 12.48 31.13 9.9 31.13 9.89 30.79 9.83 29.87 9.75 28.57 9.67 27.08 9.58 25.57 9.51 24.25 9.45 23.29 9.43 22.89 9.41 22.89 9.36 22.89 9.31 22.89 9.31 22.89 7.91 31.13 7.91 31.13 7.91 31.13"/><polyline class="cls-4" points="7.91 31.13 5.63 31.13 7.53 20.1 11.51 20.1 11.89 26.65 14.63 20.1 18.79 20.1 16.84 31.13 14.55 31.13 15.99 22.89 15.9 22.89 12.48 31.13 9.9 31.13 9.9 31.13 9.89 30.79 9.83 29.87 9.75 28.57 9.67 27.08 9.58 25.57 9.51 24.25 9.45 23.29 9.43 22.89 9.43 22.89 9.41 22.89 9.36 22.89 9.31 22.89 9.31 22.89 7.91 31.13"/><polygon class="cls-3" points="67.3 29.27 66.95 31.13 64.84 31.13 64.86 30.79 64.87 30.49 64.87 30.26 64.89 30.16 64.78 30.29 64.65 30.41 64.5 30.53 64.33 30.65 64.16 30.76 63.95 30.86 63.74 30.96 63.53 31.04 63.31 31.11 63.07 31.18 62.84 31.22 62.6 31.25 62.36 31.27 62.12 31.28 61.9 31.25 61.67 31.22 61.37 31.14 61.1 31.06 60.86 30.95 60.64 30.82 60.46 30.69 60.3 30.54 60.16 30.38 60.05 30.21 59.95 30.03 59.87 29.85 59.8 29.66 59.76 29.48 59.73 29.29 59.7 29.09 59.69 28.91 59.69 28.72 59.7 28.39 59.75 28.08 59.83 27.79 59.94 27.5 60.06 27.23 60.22 26.99 60.4 26.76 60.59 26.55 60.81 26.35 61.04 26.18 61.28 26.02 61.54 25.88 61.8 25.77 62.08 25.67 62.36 25.6 62.64 25.55 62.66 25.55 62.7 25.54 62.76 25.53 62.84 25.52 62.95 25.5 63.07 25.5 63.2 25.48 63.33 25.46 63.48 25.45 63.63 25.43 63.77 25.42 63.91 25.4 64.05 25.39 64.16 25.39 64.28 25.38 64.37 25.38 64.58 25.38 64.78 25.39 64.97 25.39 65.16 25.39 65.31 25.4 65.45 25.41 65.53 25.42 65.56 25.42 65.58 25.36 65.6 25.21 65.63 25.03 65.64 24.87 65.61 24.69 65.54 24.52 65.43 24.37 65.31 24.24 65.16 24.13 64.98 24.06 64.79 24.01 64.59 23.99 64.36 23.98 64.11 23.98 63.84 23.98 63.58 23.98 63.3 24 63.03 24.02 62.76 24.05 62.5 24.08 62.25 24.12 62 24.16 61.79 24.2 61.58 24.24 61.4 24.29 61.25 24.34 61.13 24.4 61.04 24.45 61.63 22.43 61.81 22.35 62 22.29 62.2 22.23 62.4 22.18 62.61 22.14 62.82 22.11 63.04 22.07 63.27 22.06 63.5 22.04 63.74 22.03 63.99 22.02 64.25 22.02 64.51 22.02 64.78 22.02 65.06 22.03 65.35 22.04 65.58 22.06 65.84 22.1 66.1 22.16 66.36 22.23 66.63 22.34 66.89 22.45 67.14 22.6 67.37 22.76 67.58 22.94 67.78 23.14 67.94 23.37 68.07 23.62 68.16 23.89 68.22 24.18 68.22 24.5 68.18 24.83 67.3 29.27 67.3 29.27 67.3 29.27"/><polygon class="cls-3" points="66.95 31.19 67 31.14 67.35 29.28 67.25 29.26 66.9 31.13 66.95 31.07 66.95 31.19 67 31.18 67 31.14 66.95 31.19 66.95 31.19 66.95 31.19"/><polygon class="cls-3" points="64.79 31.13 64.84 31.19 66.95 31.19 66.95 31.07 64.84 31.07 64.89 31.13 64.79 31.13 64.79 31.19 64.84 31.19 64.79 31.13 64.79 31.13 64.79 31.13"/><polygon class="cls-3" points="64.93 30.19 64.85 30.13 64.82 30.26 64.81 30.49 64.81 30.79 64.79 31.13 64.89 31.13 64.91 30.79 64.93 30.49 64.92 30.26 64.92 30.19 64.84 30.13 64.93 30.19 64.93 30.19 64.93 30.19"/><polygon class="cls-3" points="61.66 31.27 61.66 31.27 61.9 31.3 62.12 31.33 62.36 31.32 62.6 31.3 62.84 31.27 63.08 31.23 63.31 31.16 63.55 31.09 63.76 31.01 63.98 30.91 64.18 30.81 64.36 30.69 64.53 30.57 64.69 30.45 64.82 30.32 64.93 30.19 64.84 30.13 64.73 30.25 64.62 30.37 64.47 30.49 64.31 30.61 64.13 30.71 63.93 30.81 63.73 30.91 63.52 30.99 63.3 31.06 63.06 31.13 62.83 31.17 62.6 31.2 62.36 31.22 62.12 31.23 61.9 31.2 61.68 31.17 61.68 31.17 61.66 31.27 61.66 31.27 61.66 31.27"/><polygon class="cls-3" points="59.63 28.72 59.63 28.72 59.63 28.91 59.65 29.09 59.68 29.29 59.71 29.49 59.75 29.67 59.82 29.87 59.9 30.06 60 30.23 60.12 30.41 60.26 30.57 60.42 30.73 60.62 30.86 60.84 31 61.08 31.11 61.36 31.19 61.66 31.27 61.68 31.17 61.37 31.09 61.11 31.01 60.89 30.9 60.67 30.78 60.49 30.65 60.34 30.5 60.21 30.34 60.09 30.18 60 30.01 59.92 29.83 59.85 29.66 59.81 29.47 59.78 29.28 59.75 29.09 59.73 28.91 59.74 28.72 59.74 28.72 59.63 28.72 59.63 28.72 59.63 28.72"/><polygon class="cls-3" points="62.64 25.5 62.64 25.5 62.35 25.55 62.06 25.62 61.79 25.71 61.52 25.83 61.26 25.97 61 26.13 60.78 26.31 60.56 26.51 60.36 26.72 60.18 26.96 60.01 27.21 59.89 27.49 59.78 27.77 59.7 28.07 59.65 28.39 59.63 28.72 59.74 28.72 59.75 28.39 59.8 28.09 59.88 27.81 59.99 27.52 60.11 27.26 60.26 27.02 60.44 26.79 60.63 26.58 60.84 26.39 61.07 26.22 61.31 26.07 61.57 25.93 61.82 25.82 62.1 25.72 62.37 25.65 62.64 25.6 62.64 25.6 62.64 25.5 62.64 25.5 62.64 25.5"/><polygon class="cls-3" points="64.37 25.32 64.37 25.32 64.28 25.32 64.16 25.34 64.05 25.34 63.91 25.35 63.77 25.37 63.63 25.38 63.48 25.39 63.33 25.41 63.2 25.43 63.07 25.45 62.95 25.45 62.84 25.47 62.76 25.48 62.69 25.49 62.66 25.5 62.64 25.5 62.64 25.6 62.66 25.6 62.71 25.59 62.76 25.58 62.84 25.57 62.95 25.55 63.07 25.55 63.2 25.53 63.33 25.51 63.48 25.5 63.63 25.48 63.77 25.47 63.91 25.45 64.05 25.45 64.16 25.44 64.28 25.44 64.37 25.44 64.37 25.44 64.37 25.32 64.37 25.32 64.37 25.32"/><polygon class="cls-3" points="65.51 25.41 65.56 25.37 65.53 25.37 65.45 25.36 65.31 25.35 65.16 25.34 64.97 25.34 64.78 25.34 64.58 25.32 64.37 25.32 64.37 25.44 64.58 25.44 64.78 25.44 64.97 25.45 65.16 25.45 65.31 25.45 65.45 25.46 65.53 25.47 65.56 25.47 65.61 25.43 65.56 25.47 65.6 25.48 65.61 25.43 65.51 25.41 65.51 25.41 65.51 25.41"/><polygon class="cls-3" points="65.59 24.87 65.58 24.87 65.58 25.03 65.55 25.2 65.53 25.35 65.51 25.41 65.61 25.43 65.63 25.37 65.65 25.22 65.68 25.03 65.7 24.87 65.69 24.87 65.59 24.87 65.59 24.87 65.59 24.87"/><polygon class="cls-3" points="64.59 24.04 64.59 24.05 64.79 24.06 64.96 24.11 65.13 24.18 65.27 24.29 65.39 24.4 65.49 24.55 65.56 24.7 65.59 24.87 65.69 24.87 65.66 24.68 65.59 24.5 65.47 24.34 65.34 24.2 65.18 24.08 65 24.01 64.8 23.96 64.59 23.93 64.59 23.94 64.59 24.04 64.59 24.04 64.59 24.04"/><polygon class="cls-3" points="60.99 24.45 61.07 24.5 61.16 24.45 61.27 24.39 61.41 24.34 61.59 24.29 61.79 24.25 62.01 24.21 62.26 24.17 62.5 24.13 62.76 24.1 63.03 24.07 63.3 24.05 63.58 24.03 63.84 24.03 64.11 24.03 64.36 24.03 64.59 24.04 64.59 23.94 64.36 23.93 64.11 23.92 63.84 23.92 63.58 23.93 63.3 23.95 63.03 23.98 62.76 24 62.5 24.03 62.24 24.07 62 24.11 61.78 24.15 61.58 24.19 61.39 24.24 61.23 24.29 61.1 24.35 61 24.41 61.09 24.46 60.99 24.45 60.99 24.45 60.99 24.45"/><polygon class="cls-3" points="61.61 22.38 61.58 22.42 60.99 24.45 61.09 24.46 61.68 22.44 61.64 22.48 61.61 22.38 61.58 22.39 61.58 22.42 61.61 22.38 61.61 22.38 61.61 22.38"/><polygon class="cls-3" points="65.35 21.99 65.35 21.99 65.06 21.98 64.78 21.97 64.51 21.97 64.25 21.97 63.99 21.97 63.74 21.98 63.5 21.99 63.27 22.01 63.04 22.02 62.81 22.06 62.6 22.09 62.39 22.13 62.19 22.18 61.99 22.23 61.79 22.3 61.61 22.38 61.64 22.48 61.83 22.4 62.02 22.34 62.21 22.28 62.41 22.23 62.62 22.19 62.83 22.16 63.04 22.13 63.27 22.11 63.5 22.09 63.74 22.08 63.99 22.08 64.25 22.08 64.51 22.08 64.78 22.08 65.06 22.09 65.35 22.09 65.35 22.09 65.35 21.99 65.35 21.99 65.35 21.99"/><polygon class="cls-3" points="68.23 24.84 68.23 24.84 68.27 24.5 68.27 24.18 68.21 23.88 68.12 23.61 67.99 23.34 67.82 23.11 67.62 22.9 67.41 22.71 67.16 22.55 66.91 22.4 66.64 22.29 66.38 22.18 66.11 22.11 65.84 22.05 65.58 22.01 65.35 21.99 65.35 22.09 65.58 22.11 65.83 22.15 66.09 22.21 66.35 22.29 66.61 22.39 66.86 22.5 67.11 22.64 67.34 22.8 67.55 22.98 67.73 23.18 67.9 23.39 68.02 23.64 68.11 23.9 68.17 24.18 68.17 24.5 68.13 24.82 68.13 24.82 68.23 24.84 68.23 24.84 68.23 24.84"/><polygon class="cls-3" points="67.35 29.28 67.35 29.28 68.23 24.84 68.13 24.82 67.25 29.26 67.25 29.26 67.35 29.28 67.35 29.28 67.35 29.28"/><polygon class="cls-1" points="65.27 27.08 65.25 27.02 65.21 26.98 65.16 26.96 65.07 26.93 64.98 26.92 64.87 26.92 64.74 26.92 64.62 26.92 64.48 26.94 64.35 26.96 64.21 26.98 64.09 26.99 63.96 27.02 63.85 27.03 63.74 27.06 63.66 27.08 63.6 27.08 63.53 27.11 63.45 27.13 63.36 27.17 63.25 27.22 63.15 27.27 63.03 27.33 62.92 27.4 62.81 27.48 62.7 27.57 62.61 27.66 62.52 27.77 62.44 27.89 62.38 28.02 62.33 28.15 62.31 28.29 62.3 28.58 62.34 28.81 62.41 28.98 62.51 29.1 62.63 29.18 62.78 29.23 62.92 29.26 63.06 29.27 63.31 29.26 63.55 29.23 63.77 29.19 63.96 29.13 64.15 29.07 64.31 28.99 64.46 28.91 64.59 28.81 64.71 28.71 64.81 28.61 64.9 28.5 64.98 28.39 65.04 28.29 65.08 28.19 65.11 28.09 65.14 28 65.17 27.77 65.21 27.52 65.25 27.29 65.27 27.08 65.27 27.08 65.27 27.08"/><polygon class="cls-3" points="82.58 29.98 82.59 29.79 82.66 29.56 82.78 29.36 82.92 29.18 83.1 29.04 83.3 28.94 83.52 28.87 83.75 28.85 83.99 28.87 84.21 28.94 84.41 29.04 84.58 29.18 84.73 29.36 84.84 29.56 84.91 29.79 84.93 29.98 84.68 29.98 84.67 29.83 84.62 29.65 84.53 29.48 84.42 29.34 84.29 29.22 84.13 29.13 83.94 29.08 83.75 29.06 83.56 29.08 83.37 29.13 83.21 29.22 83.08 29.34 82.97 29.48 82.89 29.65 82.84 29.83 82.82 29.98 82.58 29.98 82.58 29.98 82.58 29.98"/><polygon class="cls-3" points="83.33 29.98 83.33 29.48 83.79 29.48 83.89 29.49 83.99 29.5 84.06 29.53 84.11 29.56 84.16 29.61 84.19 29.66 84.21 29.72 84.21 29.78 84.21 29.86 84.19 29.92 84.16 29.97 84.15 29.98 83.79 29.98 83.83 29.98 83.89 29.97 83.94 29.95 83.98 29.93 84.01 29.91 84.03 29.88 84.05 29.84 84.05 29.78 84.04 29.74 84.02 29.71 84 29.69 83.97 29.67 83.93 29.66 83.89 29.66 83.84 29.66 83.79 29.66 83.54 29.66 83.54 29.98 83.33 29.98 83.33 29.98 83.33 29.98"/><polygon class="cls-3" points="82.58 29.98 82.57 30.03 82.59 30.28 82.66 30.5 82.78 30.71 82.92 30.87 83.1 31.02 83.3 31.13 83.52 31.19 83.75 31.22 83.99 31.19 84.21 31.13 84.41 31.02 84.58 30.87 84.73 30.71 84.84 30.5 84.91 30.28 84.94 30.03 84.93 29.98 84.68 29.98 84.69 30.03 84.67 30.23 84.62 30.42 84.53 30.58 84.42 30.72 84.29 30.84 84.13 30.93 83.94 30.99 83.75 31.01 83.56 30.99 83.37 30.93 83.21 30.84 83.08 30.72 82.97 30.58 82.89 30.42 82.84 30.23 82.82 30.03 82.82 29.98 82.58 29.98 82.58 29.98 82.58 29.98"/><polygon class="cls-3" points="83.33 29.98 83.33 30.5 83.54 30.5 83.54 30.08 83.75 30.08 84 30.5 84.17 30.5 83.92 30.08 83.98 30.08 84.04 30.06 84.09 30.04 84.13 30.01 84.15 29.98 83.79 29.98 83.75 29.99 83.54 29.99 83.54 29.98 83.33 29.98 83.33 29.98 83.33 29.98"/><path class="cls-4" d="M82.57,30h0l0-.24.07-.23.12-.2.14-.18L83.1,29l.2-.1.22-.07.23,0h0l.24,0,.22.07.2.1.17.14.15.18.11.2.07.23,0,.24h0l0,.25-.07.22-.11.21-.15.16-.17.15-.2.11-.22.06-.24,0h0l-.23,0-.22-.06L83.1,31l-.18-.15-.14-.16-.12-.21-.07-.22,0-.25m1,.47h-.21v-1H84l.06,0,.06,0,0,.05,0,.05,0,.06v.06h0v.08l0,.06,0,0,0,0,0,0,0,0-.06,0h-.06l.25.42H84l-.25-.42h-.21v.42m.21-.51h0l.08,0h.06l0,0,0,0,0,0,0,0,0,0v-.06h0v0l0,0,0,0,0,0h-.43V30h.21m0,1h0l.2,0,.18-.06.16-.09.13-.12.11-.14.09-.16,0-.18V30h0v-.2l0-.18-.09-.17-.11-.14-.13-.12-.16-.09L84,29.08l-.2,0h0l-.19,0-.19.05-.16.09-.13.12-.11.14-.08.17,0,.18,0,.2h0l0,.21,0,.18.08.16.11.14.13.12.16.09.19.06.19,0"/><polygon class="cls-3" points="67.93 31.13 70.3 31.13 70.3 31.13 71.15 26.35 71.18 26.17 71.23 25.98 71.28 25.8 71.35 25.61 71.43 25.43 71.53 25.25 71.64 25.08 71.78 24.92 71.93 24.78 72.1 24.65 72.29 24.52 72.51 24.42 72.75 24.34 73.02 24.27 73.31 24.22 73.64 24.2 73.76 24.2 73.83 24.2 73.85 24.2 73.85 24.2 74.23 22.04 74 22.06 73.77 22.08 73.56 22.13 73.36 22.18 73.17 22.25 73 22.34 72.83 22.43 72.67 22.53 72.52 22.65 72.37 22.77 72.24 22.9 72.11 23.03 71.98 23.18 71.85 23.34 71.73 23.49 71.61 23.66 71.86 22.13 69.5 22.13 67.93 31.13 67.93 31.13 67.93 31.13 67.93 31.13"/><polyline class="cls-4" points="67.93 31.13 70.3 31.13 70.3 31.13 71.15 26.35 71.15 26.35 71.18 26.17 71.23 25.98 71.28 25.8 71.35 25.61 71.43 25.43 71.53 25.25 71.64 25.08 71.78 24.92 71.93 24.78 72.1 24.65 72.29 24.52 72.51 24.42 72.75 24.34 73.02 24.27 73.31 24.22 73.64 24.2 73.64 24.2 73.76 24.2 73.83 24.2 73.85 24.2 73.85 24.2 74.23 22.04 74.23 22.04 74 22.06 73.77 22.08 73.56 22.13 73.36 22.18 73.17 22.25 73 22.34 72.83 22.43 72.67 22.53 72.52 22.65 72.37 22.77 72.24 22.9 72.11 23.03 71.98 23.18 71.85 23.34 71.73 23.49 71.61 23.66 71.86 22.13 69.5 22.13 67.93 31.13 67.93 31.13"/><polygon class="cls-3" points="45.68 31.13 48.05 31.13 48.09 31.13 48.9 26.35 48.93 26.17 48.97 25.99 49.01 25.82 49.07 25.65 49.14 25.48 49.22 25.32 49.32 25.17 49.44 25.02 49.58 24.9 49.73 24.77 49.91 24.67 50.11 24.58 50.35 24.5 50.61 24.44 50.9 24.39 51.22 24.37 51.25 24.37 51.28 24.38 51.32 24.39 51.37 24.39 51.41 24.39 51.44 24.4 51.47 24.41 51.48 24.41 51.48 24.38 51.51 24.28 51.54 24.13 51.58 23.94 51.64 23.72 51.7 23.49 51.78 23.25 51.85 23.02 51.92 22.86 52 22.7 52.09 22.54 52.17 22.39 52.25 22.27 52.31 22.17 52.35 22.11 52.37 22.08 52.36 22.08 52.32 22.07 52.28 22.07 52.22 22.06 52.16 22.06 52.1 22.05 52.04 22.04 51.98 22.04 51.72 22.06 51.48 22.08 51.26 22.13 51.06 22.18 50.87 22.24 50.69 22.33 50.53 22.41 50.38 22.51 50.24 22.62 50.1 22.75 49.98 22.87 49.85 23.02 49.73 23.16 49.61 23.32 49.48 23.49 49.36 23.66 49.66 22.13 47.25 22.13 45.68 31.13 45.68 31.13 45.68 31.13 45.68 31.13"/><polyline class="cls-4" points="45.68 31.13 48.05 31.13 48.09 31.13 48.9 26.35 48.9 26.35 48.93 26.17 48.97 25.99 49.01 25.82 49.07 25.65 49.14 25.48 49.22 25.32 49.32 25.17 49.44 25.02 49.58 24.9 49.73 24.77 49.91 24.67 50.11 24.58 50.35 24.5 50.61 24.44 50.9 24.39 51.22 24.37 51.22 24.37 51.25 24.37 51.28 24.38 51.32 24.39 51.37 24.39 51.41 24.39 51.44 24.4 51.47 24.41 51.48 24.41 51.48 24.41 51.48 24.38 51.51 24.28 51.54 24.13 51.58 23.94 51.64 23.72 51.7 23.49 51.78 23.25 51.85 23.02 51.85 23.02 51.92 22.86 52 22.7 52.09 22.54 52.17 22.39 52.25 22.27 52.31 22.17 52.35 22.11 52.37 22.08 52.37 22.08 52.36 22.08 52.32 22.07 52.28 22.07 52.22 22.06 52.16 22.06 52.1 22.05 52.04 22.04 51.98 22.04 51.98 22.04 51.72 22.06 51.48 22.08 51.26 22.13 51.06 22.18 50.87 22.24 50.69 22.33 50.53 22.41 50.38 22.51 50.24 22.62 50.1 22.75 49.98 22.87 49.85 23.02 49.73 23.16 49.61 23.32 49.48 23.49 49.36 23.66 49.66 22.13 47.25 22.13 45.68 31.13 45.68 31.13"/><polygon class="cls-1" points="82.59 39.98 82.59 39.94 82.66 39.72 82.78 39.53 82.92 39.36 83.1 39.23 83.3 39.13 83.52 39.07 83.75 39.04 83.99 39.07 84.21 39.13 84.41 39.23 84.58 39.36 84.73 39.53 84.84 39.72 84.91 39.94 84.91 39.98 84.67 39.98 84.62 39.8 84.53 39.64 84.42 39.5 84.29 39.38 84.13 39.29 83.94 39.23 83.75 39.21 83.56 39.23 83.37 39.29 83.21 39.38 83.08 39.5 82.97 39.64 82.89 39.8 82.84 39.98 82.59 39.98 82.59 39.98 82.59 39.98"/><polygon class="cls-1" points="83.33 39.98 83.33 39.68 83.79 39.68 83.89 39.68 83.99 39.7 84.06 39.71 84.11 39.75 84.16 39.79 84.19 39.84 84.21 39.9 84.21 39.98 84.05 39.98 84.05 39.93 84.04 39.89 84.02 39.86 84 39.84 83.97 39.82 83.93 39.81 83.89 39.81 83.84 39.81 83.79 39.81 83.54 39.81 83.54 39.98 83.33 39.98 83.33 39.98 83.33 39.98"/><polygon class="cls-1" points="82.57 40.16 82.59 39.98 82.84 39.98 82.84 39.98 82.82 40.16 82.57 40.16 82.57 40.16 82.57 40.16"/><polygon class="cls-1" points="83.33 40.16 83.33 39.98 83.54 39.98 83.54 40.14 83.75 40.14 83.83 40.13 83.89 40.12 83.94 40.1 83.98 40.08 84.01 40.06 84.03 40.03 84.05 39.99 84.05 39.98 84.21 39.98 84.21 39.98 84.21 40.03 84.19 40.08 84.16 40.13 84.13 40.16 83.33 40.16 83.33 40.16 83.33 40.16"/><polygon class="cls-1" points="84.69 40.16 84.67 39.98 84.67 39.98 84.91 39.98 84.94 40.16 84.69 40.16 84.69 40.16 84.69 40.16"/><polygon class="cls-1" points="82.57 40.16 82.57 40.19 82.59 40.43 82.66 40.66 82.78 40.86 82.92 41.03 83.1 41.18 83.3 41.28 83.52 41.34 83.75 41.37 83.99 41.34 84.21 41.28 84.41 41.18 84.58 41.03 84.73 40.86 84.84 40.66 84.91 40.43 84.94 40.19 84.94 40.16 84.69 40.16 84.69 40.19 84.67 40.39 84.62 40.57 84.53 40.73 84.42 40.87 84.29 40.99 84.13 41.08 83.94 41.14 83.75 41.16 83.56 41.14 83.37 41.08 83.21 40.99 83.08 40.87 82.97 40.73 82.89 40.57 82.84 40.39 82.82 40.19 82.82 40.16 82.57 40.16 82.57 40.16 82.57 40.16"/><polygon class="cls-1" points="83.33 40.16 83.33 40.65 83.54 40.65 83.54 40.23 83.75 40.23 84 40.65 84.17 40.65 83.92 40.23 83.98 40.23 84.04 40.21 84.09 40.19 84.13 40.16 84.13 40.16 83.33 40.16 83.33 40.16 83.33 40.16"/></svg>