<svg id="Слой_1" data-name="Слой 1" xmlns="http://www.w3.org/2000/svg" width="1920" height="600" viewBox="0 0 1920 600">
  <title>whatsSay</title>
  <g>
    <rect x="233.73" y="136.85" width="225.93" height="210.35" transform="translate(76.11 -82.87) rotate(15.29)" style="fill: #d6d6d6;opacity: 0.33"/>
    <rect x="85.36" y="194.71" width="225.93" height="210.35" transform="translate(86.12 -41.69) rotate(15.29)" style="fill: #c5cfff;opacity: 0.33"/>
    <rect x="288.3" y="247.31" width="225.93" height="210.35" transform="translate(107.18 -93.36) rotate(15.29)" style="fill: #fbffb3;opacity: 0.33"/>
    <rect x="203.63" y="247.14" width="225.93" height="210.35" transform="translate(104.14 -71.03) rotate(15.29)" style="fill: #b6ffe7;opacity: 0.33"/>
    <rect x="233.85" y="203.47" width="225.93" height="210.35" transform="translate(93.69 -80.55) rotate(15.29)" style="fill: #ffc5e1;opacity: 0.33"/>
  </g>
  <path d="M1213.66,258.17l-4.14,4.34-4.14,4.35L963.22,520.94l-2.07,2.17-6.21,6.52a10,10,0,0,0,14.48,13.8l6.21-6.52,2.07-2.17,242.16-254.08,4.14-4.35,4.14-4.34a10,10,0,1,0-14.48-13.8Z" style="fill: #6ea9ff"/>
  <path d="M1322,144.52l-4.14,4.35-4.14,4.34L1268.16,201l-2.07,2.17-6.2,6.51a10,10,0,1,0,14.47,13.8l6.21-6.51,2.07-2.18L1328.18,167l4.14-4.35,4.14-4.34a10,10,0,0,0-14.48-13.8Z" style="fill: #6ea9ff"/>
  <path d="M1369.58,94.57l-4.14,4.35-4.14,4.34,10.35-10.86-2.07,2.17-6.21,6.52a10,10,0,1,0,14.48,13.8l6.21-6.52,2.07-2.17-10.35,10.86,4.14-4.34,4.14-4.35a10,10,0,0,0-14.48-13.8Z" style="fill: #6ea9ff"/>
  <path d="M1274.66-20.83l-4.14,4.34-4.14,4.35L1024.22,241.94l-2.07,2.17-6.21,6.52a10,10,0,0,0,14.48,13.8l6.21-6.52,2.07-2.17L1280.86,1.66,1285-2.69,1289.14-7a10,10,0,0,0-.34-14.14A10,10,0,0,0,1274.66-20.83Z" style="fill: #6ea9ff"/>
  <path d="M1221.66,466.17l-4.14,4.34-4.14,4.35L971.22,728.94l-2.07,2.17-6.21,6.52a10,10,0,0,0,14.48,13.8l6.21-6.52,2.07-2.17,242.16-254.08,4.14-4.35,4.14-4.34a10,10,0,1,0-14.48-13.8Z" style="fill: #6ea9ff"/>
  <path d="M1330,352.52l-4.14,4.35-4.14,4.34L1276.16,409l-2.07,2.17-6.2,6.51a10,10,0,1,0,14.47,13.8l6.21-6.51,2.07-2.18L1336.18,375l4.14-4.35,4.14-4.34a10,10,0,1,0-14.48-13.8Z" style="fill: #6ea9ff"/>
  <path d="M1377.58,302.57l-4.14,4.35-4.14,4.34,10.35-10.86-2.07,2.17-6.21,6.52a10,10,0,0,0,14.48,13.8l6.21-6.52,2.07-2.17-10.35,10.86,4.14-4.34,4.14-4.35a10,10,0,0,0-14.48-13.8Z" style="fill: #6ea9ff"/>
  <path d="M1387.66,183.17l-4.14,4.34-4.14,4.35L1137.22,445.94l-2.07,2.17-6.21,6.52a10,10,0,0,0,14.48,13.8l6.21-6.52,2.07-2.17,242.16-254.08,4.14-4.35,4.14-4.34a10,10,0,1,0-14.48-13.8Z" style="fill: #6ea9ff"/>
  <path d="M1558,9.52l-4.14,4.35-4.14,4.34L1504.16,66l-2.07,2.17-6.2,6.51a10,10,0,1,0,14.47,13.8l6.21-6.51,2.07-2.18L1564.18,32l4.14-4.35,4.14-4.34A10,10,0,0,0,1558,9.52Z" style="fill: #6ea9ff"/>
  <path d="M1615.66,228.17l-4.14,4.34-4.14,4.35L1365.22,490.94l-2.07,2.17-6.21,6.52a10,10,0,0,0,14.48,13.8l6.21-6.52,2.07-2.17,242.16-254.08,4.14-4.35,4.14-4.34a10,10,0,0,0-14.48-13.8Z" style="fill: #6ea9ff"/>
  <path d="M1724,114.52l-4.14,4.35-4.14,4.34L1670.16,171l-2.07,2.17-6.2,6.51a10,10,0,1,0,14.47,13.8l6.21-6.51,2.07-2.18L1730.18,137l4.14-4.35,4.14-4.34a10,10,0,1,0-14.48-13.8Z" style="fill: #6ea9ff"/>
  <path d="M1771.58,64.57l-4.14,4.35-4.14,4.34,10.35-10.86-2.07,2.17-6.21,6.52a10,10,0,0,0,14.48,13.8l6.21-6.52,2.07-2.17-10.35,10.86,4.14-4.34,4.14-4.35a10,10,0,0,0-14.48-13.8Z" style="fill: #6ea9ff"/>
  <path d="M950.66,422.17l-4.14,4.34-4.14,4.35L700.22,684.94l-2.07,2.17-6.21,6.52a10,10,0,0,0,14.48,13.8l6.21-6.52,2.07-2.17L956.86,444.66l4.14-4.35,4.14-4.34a10,10,0,1,0-14.48-13.8Z" style="fill: #6ea9ff"/>
  <path d="M1059,308.52l-4.14,4.35-4.14,4.34L1005.16,365l-2.07,2.17-6.2,6.51a10,10,0,1,0,14.47,13.8l6.21-6.51,2.07-2.18L1065.18,331l4.14-4.35,4.14-4.34a10,10,0,1,0-14.48-13.8Z" style="fill: #6ea9ff"/>
  <path d="M1106.58,258.57l-4.14,4.35-4.14,4.34,10.35-10.86-2.07,2.17-6.21,6.52a10,10,0,0,0,14.48,13.8l6.21-6.52,2.07-2.17-10.35,10.86,4.14-4.34,4.14-4.35a10,10,0,0,0-14.48-13.8Z" style="fill: #6ea9ff"/>
  <path d="M1567.66,166.17l-4.14,4.34-4.14,4.35L1317.22,428.94l-2.07,2.17-6.21,6.52a10,10,0,0,0,14.48,13.8l6.21-6.52,2.07-2.17,242.16-254.08,4.14-4.35,4.14-4.34a10,10,0,1,0-14.48-13.8Z" style="fill: #6ea9ff"/>
  <path d="M1676,52.52l-4.14,4.35-4.14,4.34L1622.16,109l-2.07,2.17-6.2,6.51a10,10,0,1,0,14.47,13.8l6.21-6.51,2.07-2.18L1682.18,75l4.14-4.35,4.14-4.34A10,10,0,1,0,1676,52.52Z" style="fill: #6ea9ff"/>
  <path d="M1723.58,2.57l-4.14,4.35-4.14,4.34L1725.65.4l-2.07,2.17-6.21,6.52a10,10,0,0,0,14.48,13.8l6.21-6.52,2.07-2.17-10.35,10.86,4.14-4.34,4.14-4.35a10,10,0,0,0-14.48-13.8Z" style="fill: #6ea9ff"/>
</svg>
